<svg width="33" height="33" viewBox="0 0 33 33" fill="none" xmlns="http://www.w3.org/2000/svg">
<circle cx="16.5" cy="16.5" r="16" fill="#141D57"/>
<path d="M11.3465 21.0627C11.4964 22.1762 12.4187 23.0485 13.5411 23.1001C14.4855 23.1435 15.4448 23.1662 16.5013 23.1662C17.5578 23.1662 18.5171 23.1435 19.4615 23.1001C20.5839 23.0485 21.5062 22.1762 21.6561 21.0627C21.7539 20.336 21.8346 19.5913 21.8346 18.8328C21.8346 18.0744 21.7539 17.3297 21.6561 16.603C21.5062 15.4895 20.5839 14.6172 19.4615 14.5656C18.5171 14.5222 17.5578 14.4995 16.5013 14.4995C15.4448 14.4995 14.4855 14.5222 13.5411 14.5656C12.4187 14.6172 11.4964 15.4895 11.3465 16.603C11.2487 17.3297 11.168 18.0744 11.168 18.8328C11.168 19.5913 11.2487 20.336 11.3465 21.0627Z" stroke="#7FF68C"/>
<path d="M13.502 14.4997V12.833C13.502 11.1762 14.8451 9.83301 16.502 9.83301C18.1588 9.83301 19.502 11.1762 19.502 12.833V14.4997" stroke="#7FF68C" stroke-linecap="round" stroke-linejoin="round"/>
<path d="M16.498 18.833H16.504" stroke="#7FF68C" stroke-width="1.33333" stroke-linecap="round" stroke-linejoin="round"/>
</svg>
