<svg width="19" height="19" viewBox="0 0 19 19" fill="none" xmlns="http://www.w3.org/2000/svg">
<circle cx="9.78174" cy="9.30469" r="9" fill="#B7FBBE"/>
<path d="M10.1567 6.30469C10.1567 6.09758 9.98885 5.92969 9.78174 5.92969C9.57463 5.92969 9.40674 6.09758 9.40674 6.30469V8.92969H6.78174C6.57463 8.92969 6.40674 9.09758 6.40674 9.30469C6.40674 9.5118 6.57463 9.67969 6.78174 9.67969H9.40674V12.3047C9.40674 12.5118 9.57463 12.6797 9.78174 12.6797C9.98885 12.6797 10.1567 12.5118 10.1567 12.3047V9.67969H12.7817C12.9888 9.67969 13.1567 9.5118 13.1567 9.30469C13.1567 9.09758 12.9888 8.92969 12.7817 8.92969H10.1567V6.30469Z" fill="#141D57"/>
</svg>
