<svg width="22" height="23" viewBox="0 0 22 23" fill="none" xmlns="http://www.w3.org/2000/svg">
<path d="M2.52762 11.4424C1.5796 9.78931 1.12185 8.43948 0.845837 7.07121C0.437622 5.04758 1.37181 3.07081 2.91938 1.80947C3.57345 1.27638 4.32323 1.45852 4.71 2.1524L5.58318 3.71891C6.27529 4.96057 6.62134 5.58139 6.5527 6.23959C6.48407 6.89779 6.01737 7.43386 5.08397 8.50601L2.52762 11.4424ZM2.52762 11.4424C4.44651 14.7883 7.45784 17.8013 10.8076 19.7224M10.8076 19.7224C12.4607 20.6704 13.8105 21.1282 15.1788 21.4042C17.2024 21.8124 19.1792 20.8782 20.4405 19.3306C20.9736 18.6766 20.7915 17.9268 20.0976 17.54L18.5311 16.6668C17.2894 15.9747 16.6686 15.6287 16.0104 15.6973C15.3522 15.7659 14.8161 16.2326 13.744 17.166L10.8076 19.7224Z" stroke="#475367" stroke-width="1.5" stroke-linejoin="round"/>
</svg>
