<svg width="61" height="60" viewBox="0 0 61 60" fill="none" xmlns="http://www.w3.org/2000/svg">
<rect x="0.353516" width="60" height="60" rx="13.75" fill="#D9E7FF"/>
<path d="M20.0755 29.9279C18.8905 27.8616 18.3183 26.1743 17.9733 24.464C17.463 21.9345 18.6308 19.4635 20.5652 17.8868C21.3828 17.2205 22.3201 17.4481 22.8035 18.3155L23.895 20.2736C24.7601 21.8257 25.1927 22.6017 25.1069 23.4245C25.0211 24.2472 24.4377 24.9173 23.271 26.2575L20.0755 29.9279ZM20.0755 29.9279C22.4741 34.1103 26.2383 37.8766 30.4256 40.278M30.4256 40.278C32.4919 41.463 34.1792 42.0352 35.8895 42.3802C38.419 42.8905 40.89 41.7227 42.4667 39.7883C43.133 38.9707 42.9054 38.0335 42.038 37.55L40.0799 36.4585C38.5278 35.5934 37.7518 35.1608 36.929 35.2466C36.1063 35.3324 35.4362 35.9158 34.096 37.0825L30.4256 40.278Z" stroke="#346FFF" stroke-width="1.875" stroke-linejoin="round"/>
</svg>
