<svg width="23" height="18" viewBox="0 0 23 18" fill="none" xmlns="http://www.w3.org/2000/svg">
<path d="M21.5 9C21.5 5.22876 21.5 3.34315 20.3284 2.17157C19.1569 1 17.2712 1 13.5 1H10.5C8.53715 1 7.55573 1 6.71115 1.42229C5.86656 1.84458 5.27771 2.62972 4.1 4.2C2.36667 6.51111 1.5 7.66667 1.5 9C1.5 10.3333 2.36667 11.4889 4.1 13.8C5.27771 15.3703 5.86656 16.1554 6.71115 16.5777C7.55573 17 8.53715 17 10.5 17H13.5C17.2712 17 19.1569 17 20.3284 15.8284C21.5 14.6569 21.5 12.7712 21.5 9Z" stroke="#344054" stroke-width="1.5"/>
<path d="M9.5 6L15.5 11.9996M9.5 12L15.5 6.00039" stroke="#344054" stroke-width="1.5" stroke-linecap="round" stroke-linejoin="round"/>
</svg>
