<svg width="33" height="33" viewBox="0 0 33 33" fill="none" xmlns="http://www.w3.org/2000/svg">
<circle cx="16.5" cy="16.5" r="16" fill="#141D57"/>
<g clip-path="url(#clip0_8285_18007)">
<path d="M22.3513 20.5005C22.8508 20.5005 23.2482 20.1861 23.6049 19.7466C24.3352 18.8468 23.1362 18.1277 22.6789 17.7756C22.214 17.4176 21.6949 17.2148 21.1686 17.1672M20.502 15.8338C21.4224 15.8338 22.1686 15.0876 22.1686 14.1672C22.1686 13.2467 21.4224 12.5005 20.502 12.5005" stroke="#7FF68C" stroke-linecap="round"/>
<path d="M10.6519 20.5005C10.1524 20.5005 9.75508 20.1861 9.39833 19.7466C8.66803 18.8468 9.86708 18.1277 10.3244 17.7756C10.7893 17.4176 11.3084 17.2148 11.8346 17.1672M12.168 15.8338C11.2475 15.8338 10.5013 15.0876 10.5013 14.1672C10.5013 13.2467 11.2475 12.5005 12.168 12.5005" stroke="#7FF68C" stroke-linecap="round"/>
<path d="M13.8905 18.5743C13.2093 18.9955 11.4233 19.8556 12.5111 20.9318C13.0425 21.4575 13.6343 21.8335 14.3784 21.8335H18.6242C19.3683 21.8335 19.9601 21.4575 20.4915 20.9318C21.5793 19.8556 19.7933 18.9955 19.1121 18.5743C17.5147 17.5866 15.4879 17.5866 13.8905 18.5743Z" stroke="#7FF68C" stroke-linecap="round" stroke-linejoin="round"/>
<path d="M18.8346 13.5003C18.8346 14.789 17.79 15.8337 16.5013 15.8337C15.2126 15.8337 14.168 14.789 14.168 13.5003C14.168 12.2117 15.2126 11.167 16.5013 11.167C17.79 11.167 18.8346 12.2117 18.8346 13.5003Z" stroke="#7FF68C"/>
</g>
<defs>
<clipPath id="clip0_8285_18007">
<rect width="16" height="16" fill="white" transform="translate(8.5 8.5)"/>
</clipPath>
</defs>
</svg>
