<svg width="21" height="20" viewBox="0 0 21 20" fill="none" xmlns="http://www.w3.org/2000/svg">
<g clip-path="url(#clip0_7991_10244)">
<path d="M10.5 20C16.0228 20 20.5 15.5228 20.5 10C20.5 4.47715 16.0228 0 10.5 0C4.97715 0 0.5 4.47715 0.5 10C0.5 15.5228 4.97715 20 10.5 20Z" fill="#F0F0F0"/>
<path d="M2.56742 3.91187C1.78191 4.93386 1.18961 6.11179 0.844727 7.39144H6.04699L2.56742 3.91187Z" fill="#0052B4"/>
<path d="M20.1558 7.3914C19.8109 6.11179 19.2186 4.93386 18.4331 3.91187L14.9536 7.3914H20.1558Z" fill="#0052B4"/>
<path d="M0.844727 12.6086C1.18965 13.8883 1.78195 15.0662 2.56742 16.0881L6.04688 12.6086H0.844727Z" fill="#0052B4"/>
<path d="M16.5884 2.06722C15.5664 1.28171 14.3885 0.689404 13.1089 0.344482V5.54671L16.5884 2.06722Z" fill="#0052B4"/>
<path d="M4.41211 17.9328C5.4341 18.7183 6.61203 19.3106 7.89164 19.6556V14.4534L4.41211 17.9328Z" fill="#0052B4"/>
<path d="M7.8916 0.344482C6.61199 0.689404 5.43406 1.28171 4.41211 2.06718L7.8916 5.54667V0.344482Z" fill="#0052B4"/>
<path d="M13.1089 19.6556C14.3885 19.3106 15.5664 18.7183 16.5884 17.9329L13.1089 14.4534V19.6556Z" fill="#0052B4"/>
<path d="M14.9536 12.6086L18.4331 16.0882C19.2186 15.0662 19.8109 13.8883 20.1558 12.6086H14.9536Z" fill="#0052B4"/>
<path d="M20.4154 8.69566H11.8044H11.8044V0.0846484C11.3774 0.0290625 10.9421 0 10.5 0C10.0579 0 9.62262 0.0290625 9.19566 0.0846484V8.69559V8.69563H0.584648C0.529063 9.12262 0.5 9.55793 0.5 10C0.5 10.4421 0.529063 10.8774 0.584648 11.3043H9.19559H9.19563V19.9154C9.62262 19.9709 10.0579 20 10.5 20C10.9421 20 11.3774 19.971 11.8043 19.9154V11.3044V11.3044H20.4154C20.4709 10.8774 20.5 10.4421 20.5 10C20.5 9.55793 20.4709 9.12262 20.4154 8.69566V8.69566Z" fill="#D80027"/>
<path d="M13.1089 12.6087L17.5712 17.071C17.7765 16.8659 17.9722 16.6514 18.159 16.429L14.3387 12.6086H13.1089V12.6087Z" fill="#D80027"/>
<path d="M7.89109 12.6086H7.89102L3.42871 17.0709C3.63387 17.2762 3.84836 17.472 4.0707 17.6588L7.89109 13.8383V12.6086Z" fill="#D80027"/>
<path d="M7.89146 7.39142V7.39134L3.42912 2.92896C3.22389 3.13411 3.02811 3.3486 2.84131 3.57095L6.66174 7.39138H7.89146V7.39142Z" fill="#D80027"/>
<path d="M13.1089 7.39126L17.5713 2.92884C17.3661 2.7236 17.1516 2.52782 16.9293 2.34106L13.1089 6.16149V7.39126Z" fill="#D80027"/>
</g>
<defs>
<clipPath id="clip0_7991_10244">
<rect width="20" height="20" fill="white" transform="translate(0.5)"/>
</clipPath>
</defs>
</svg>
