<svg width="60" height="60" viewBox="0 0 60 60" fill="none" xmlns="http://www.w3.org/2000/svg">
<rect width="60" height="60" rx="13.75" fill="#FBE2B7"/>
<path d="M21.4286 32.5C20.5217 31.0102 20 29.2647 20 27.3986C20 21.9317 24.4772 17.5 30 17.5C35.5228 17.5 40 21.9317 40 27.3986C40 29.2647 39.4783 31.0102 38.5714 32.5" stroke="#F3A218" stroke-width="1.875" stroke-linecap="round"/>
<path d="M24.2286 36.3728C24.1138 36.027 24.0563 35.8541 24.063 35.7141C24.0772 35.4179 24.2639 35.1578 24.5395 35.0507C24.6697 35 24.8513 35 25.2145 35H34.7855C35.1487 35 35.3303 35 35.4605 35.0507C35.7361 35.1578 35.9228 35.4179 35.937 35.7141C35.9437 35.8541 35.8862 36.027 35.7714 36.3728C35.5592 37.0118 35.4531 37.3313 35.2894 37.59C34.9465 38.1321 34.409 38.5209 33.7882 38.676C33.4919 38.75 33.1563 38.75 32.4852 38.75H27.5148C26.8437 38.75 26.5081 38.75 26.2118 38.676C25.591 38.5209 25.0535 38.1321 24.7106 37.59C24.5469 37.3313 24.4408 37.0118 24.2286 36.3728Z" stroke="#F3A218" stroke-width="1.875"/>
<path d="M33.75 38.75L33.5883 39.5583C33.4116 40.4421 33.3232 40.884 33.1252 41.2332C32.819 41.7732 32.3228 42.1799 31.7333 42.3743C31.352 42.5 30.9013 42.5 30 42.5C29.0987 42.5 28.648 42.5 28.2667 42.3743C27.6772 42.1799 27.181 41.7732 26.8748 41.2332C26.6768 40.884 26.5884 40.4421 26.4117 39.5583L26.25 38.75" stroke="#F3A218" stroke-width="1.875"/>
<path d="M30.6907 23.125L28.7886 25.2432C28.5272 25.5343 28.6863 25.9992 29.0712 26.0692L30.9321 26.4076C31.342 26.4821 31.4863 26.9957 31.1753 27.2728L28.8157 29.375" stroke="#F3A218" stroke-width="1.875" stroke-linecap="round" stroke-linejoin="round"/>
</svg>
