<svg width="40" height="41" viewBox="0 0 40 41" fill="none" xmlns="http://www.w3.org/2000/svg">
<g clip-path="url(#clip0_7212_24782)">
<path d="M20 0.445312C8.97371 0.445312 0 9.4644 0 20.5494C0 31.6344 8.97371 40.5494 20 40.5494C31.0263 40.5494 40 31.5757 40 20.5494C40 9.52312 31.029 0.445312 20 0.445312ZM20 38.7184C9.98265 38.7184 1.83104 30.5694 1.83104 20.5494C1.83104 10.5294 9.98265 2.38579 20 2.38579C30.0174 2.38579 38.1663 10.5347 38.1663 20.5521C38.1663 30.5694 30.0174 38.721 20 38.721V38.7184ZM20 3.89653C10.8154 3.89653 3.34445 11.3675 3.34445 20.5494C3.34445 29.7313 10.8154 37.205 20 37.205C29.1846 37.205 36.6529 29.734 36.6529 20.5494C36.6529 11.3648 29.1846 3.89653 20 3.89653ZM20 35.4086C11.8057 35.4086 5.1408 28.7437 5.1408 20.5494C5.1408 12.3551 11.8057 5.58611 20 5.58611C28.1943 5.58611 34.8565 12.299 34.8565 20.5494C34.8565 28.7998 28.1916 35.4086 20 35.4086Z" fill="#0EB622"/>
<path d="M15.2402 21.0923L18.2149 24.067L24.7593 16.9277" stroke="#0EB622" stroke-width="2.41465" stroke-linecap="round" stroke-linejoin="round"/>
</g>
<defs>
<clipPath id="clip0_7212_24782">
<rect width="40" height="40.1068" fill="white" transform="translate(0 0.446289)"/>
</clipPath>
</defs>
</svg>
