<svg width="182" height="131" viewBox="0 0 182 131" fill="none" xmlns="http://www.w3.org/2000/svg">
<path d="M1.5 123.495C6.32005 81.3643 29.7425 2.03512 89.5 1.62419C142.57 1.25924 55.6632 88.5638 113.5 124.507C168.098 158.438 176.562 3.99669 171.38 3.08231" stroke="#F3A218" stroke-width="2" stroke-linecap="round"/>
<g clip-path="url(#clip0_11644_18272)">
<rect x="4.5" y="17.7822" width="177" height="102" rx="18" fill="#D6FF7E"/>
<rect x="4.53516" y="36.5254" width="176.951" height="8.77734" fill="#739132"/>
<path d="M144.055 31.5996V26.4434H151.789V31.5996H144.055ZM152.922 31.5996V26.4434H160.656V31.5996H152.922ZM160.422 31.5996V26.4434H168.156V31.5996H160.422Z" fill="black"/>
<path d="M18.5957 61V59.2812H21.1738V61H18.5957ZM26.1113 61V59.2812H28.6895V61H26.1113ZM28.6113 61V59.2812H31.1895V61H28.6113ZM31.1113 61V59.2812H33.6895V61H31.1113ZM33.6113 61V59.2812H36.1895V61H33.6113ZM36.1113 61V59.2812H38.6895V61H36.1113ZM38.6113 61V59.2812H41.1895V61H38.6113ZM46.127 61V59.2812H48.7051V61H46.127ZM48.627 61V59.2812H51.2051V61H48.627ZM51.127 61V59.2812H53.7051V61H51.127ZM53.627 61V59.2812H56.2051V61H53.627ZM56.127 61V59.2812H58.7051V61H56.127ZM58.627 61V59.2812H61.2051V61H58.627ZM61.127 61V59.2812H63.7051V61H61.127ZM18.5957 64V62.2812H21.1738V64H18.5957ZM21.0957 64V62.2812H23.6738V64H21.0957ZM23.5957 64V62.2812H26.1738V64H23.5957ZM26.0957 64V62.2812H28.6738V64H26.0957ZM28.5957 64V62.2812H31.1738V64H28.5957ZM31.0957 64V62.2812H33.6738V64H31.0957ZM33.5957 64V62.2812H36.1738V64H33.5957ZM36.0957 64V62.2812H38.6738V64H36.0957ZM43.6113 64V62.2812H46.1895V64H43.6113ZM46.1113 64V62.2812H48.6895V64H46.1113ZM48.6113 64V62.2812H51.1895V64H48.6113ZM51.1113 64V62.2812H53.6895V64H51.1113ZM53.6113 64V62.2812H56.1895V64H53.6113ZM56.1113 64V62.2812H58.6895V64H56.1113ZM58.6113 64V62.2812H61.1895V64H58.6113ZM61.1113 64V62.2812H63.6895V64H61.1113ZM63.6113 64V62.2812H66.1895V64H63.6113ZM71.127 64V62.2812H73.7051V64H71.127ZM73.627 64V62.2812H76.2051V64H73.627ZM18.5957 67V65.2812H21.1738V67H18.5957ZM21.0957 67V65.2812H23.6738V67H21.0957ZM23.5957 67V65.2812H26.1738V67H23.5957ZM26.0957 67V65.2812H28.6738V67H26.0957ZM28.5957 67V65.2812H31.1738V67H28.5957ZM31.0957 67V65.2812H33.6738V67H31.0957ZM33.5957 67V65.2812H36.1738V67H33.5957ZM36.0957 67V65.2812H38.6738V67H36.0957ZM38.5957 67V65.2812H41.1738V67H38.5957ZM41.0957 67V65.2812H43.6738V67H41.0957ZM43.5957 67V65.2812H46.1738V67H43.5957ZM46.0957 67V65.2812H48.6738V67H46.0957ZM48.5957 67V65.2812H51.1738V67H48.5957ZM56.1113 67V65.2812H58.6895V67H56.1113ZM58.6113 67V65.2812H61.1895V67H58.6113ZM61.1113 67V65.2812H63.6895V67H61.1113ZM63.6113 67V65.2812H66.1895V67H63.6113ZM66.1113 67V65.2812H68.6895V67H66.1113ZM68.6113 67V65.2812H71.1895V67H68.6113ZM18.5957 70V68.2812H21.1738V70H18.5957ZM21.0957 70V68.2812H23.6738V70H21.0957ZM23.5957 70V68.2812H26.1738V70H23.5957ZM26.0957 70V68.2812H28.6738V70H26.0957ZM28.5957 70V68.2812H31.1738V70H28.5957ZM31.0957 70V68.2812H33.6738V70H31.0957ZM33.5957 70V68.2812H36.1738V70H33.5957ZM18.5957 73V71.2812H21.1738V73H18.5957ZM21.0957 73V71.2812H23.6738V73H21.0957ZM23.5957 73V71.2812H26.1738V73H23.5957ZM26.0957 73V71.2812H28.6738V73H26.0957ZM28.5957 73V71.2812H31.1738V73H28.5957ZM31.0957 73V71.2812H33.6738V73H31.0957ZM33.5957 73V71.2812H36.1738V73H33.5957ZM36.0957 73V71.2812H38.6738V73H36.0957ZM43.6113 73V71.2812H46.1895V73H43.6113ZM46.1113 73V71.2812H48.6895V73H46.1113ZM48.6113 73V71.2812H51.1895V73H48.6113ZM51.1113 73V71.2812H53.6895V73H51.1113ZM53.6113 73V71.2812H56.1895V73H53.6113ZM56.1113 73V71.2812H58.6895V73H56.1113ZM58.6113 73V71.2812H61.1895V73H58.6113ZM61.1113 73V71.2812H63.6895V73H61.1113ZM63.6113 73V71.2812H66.1895V73H63.6113ZM71.127 73V71.2812H73.7051V73H71.127ZM73.627 73V71.2812H76.2051V73H73.627ZM18.5957 76V74.2812H21.1738V76H18.5957ZM21.0957 76V74.2812H23.6738V76H21.0957ZM23.5957 76V74.2812H26.1738V76H23.5957ZM26.0957 76V74.2812H28.6738V76H26.0957ZM28.5957 76V74.2812H31.1738V76H28.5957ZM31.0957 76V74.2812H33.6738V76H31.0957ZM33.5957 76V74.2812H36.1738V76H33.5957ZM36.0957 76V74.2812H38.6738V76H36.0957ZM38.5957 76V74.2812H41.1738V76H38.5957ZM41.0957 76V74.2812H43.6738V76H41.0957ZM43.5957 76V74.2812H46.1738V76H43.5957ZM46.0957 76V74.2812H48.6738V76H46.0957Z" fill="#639004"/>
<path d="M18.5957 100V92.92H19.3157V100H18.5957ZM19.6757 100V92.92H20.7557V100H19.6757ZM21.8357 100V92.92H22.1957V100H21.8357ZM22.5566 100V92.92H22.9166V100H22.5566ZM23.6366 100V92.92H23.9966V100H23.6366ZM24.3566 100V92.92H25.0766V100H24.3566ZM26.5176 100V92.92H27.9576V100H26.5176ZM28.3176 100V92.92H29.3976V100H28.3176ZM29.7576 100V92.92H30.1176V100H29.7576ZM30.4785 100V92.92H30.8385V100H30.4785ZM31.5585 100V92.92H31.9185V100H31.5585ZM32.2785 100V92.92H32.9985V100H32.2785ZM34.4395 100V92.92H34.7995V100H34.4395ZM35.5195 100V92.92H35.8795V100H35.5195ZM36.5995 100V92.92H38.0395V100H36.5995ZM38.4004 100V92.92H39.1204V100H38.4004ZM39.4804 100V92.92H40.2004V100H39.4804ZM40.9204 100V92.92H41.6404V100H40.9204ZM42.3613 100V92.92H42.7213V100H42.3613ZM43.8013 100V92.92H44.5213V100H43.8013ZM45.6013 100V92.92H45.9613V100H45.6013ZM46.3223 100V92.92H46.6823V100H46.3223ZM47.7623 100V92.92H49.2023V100H47.7623ZM49.5623 100V92.92H49.9223V100H49.5623ZM50.2832 100V92.92H50.6432V100H50.2832ZM51.3632 100V92.92H51.7232V100H51.3632ZM52.4432 100V92.92H53.8832V100H52.4432ZM54.2441 100V92.92H54.6041V100H54.2441ZM55.3241 100V92.92H56.7641V100H55.3241ZM57.1241 100V92.92H57.4841V100H57.1241ZM58.2051 100V92.92H58.5651V100H58.2051ZM58.9251 100V92.92H59.6451V100H58.9251ZM60.3651 100V92.92H60.7251V100H60.3651ZM62.166 100V92.92H62.526V100H62.166ZM63.246 100V92.92H64.686V100H63.246ZM65.046 100V92.92H65.406V100H65.046ZM66.127 100V92.92H66.487V100H66.127ZM67.207 100V92.92H67.567V100H67.207ZM67.927 100V92.92H68.647V100H67.927Z" fill="#639004"/>
<g clip-path="url(#clip1_11644_18272)">
<path d="M165.4 89.999C158.564 89.999 153 95.591 153 102.464C153 109.337 158.564 114.864 165.4 114.864C172.237 114.864 177.801 109.3 177.801 102.464C177.801 95.6274 172.239 89.999 165.4 89.999ZM165.4 113.729C159.189 113.729 154.135 108.677 154.135 102.464C154.135 96.2513 159.189 91.2022 165.4 91.2022C171.611 91.2022 176.664 96.2547 176.664 102.466C176.664 108.677 171.611 113.731 165.4 113.731V113.729ZM165.4 92.1388C159.706 92.1388 155.074 96.771 155.074 102.464C155.074 108.157 159.706 112.791 165.4 112.791C171.095 112.791 175.726 108.159 175.726 102.464C175.726 96.7693 171.095 92.1388 165.4 92.1388ZM165.4 111.677C160.32 111.677 156.187 107.545 156.187 102.464C156.187 97.3833 160.32 93.1864 165.4 93.1864C170.481 93.1864 174.612 97.3486 174.612 102.464C174.612 107.579 170.479 111.677 165.4 111.677Z" fill="#87C206"/>
<path d="M172.535 105.879C171.508 108.414 169.191 110.24 166.488 110.644C166.099 110.702 165.712 110.73 165.326 110.73C163.678 110.73 162.078 110.205 160.729 109.206C159.064 107.973 157.978 106.165 157.674 104.117C157.545 103.258 157.561 102.394 157.72 101.55L160.853 102.139C160.802 102.412 160.777 102.688 160.777 102.966H165.353V106.155H162.068C162.238 106.331 162.425 106.495 162.627 106.644C163.607 107.37 164.812 107.67 166.018 107.489C167.61 107.253 168.976 106.177 169.58 104.683L172.535 105.879Z" fill="#87C206"/>
</g>
</g>
<rect x="5" y="18.2822" width="176" height="101" rx="17.5" stroke="#A5C85A"/>
<defs>
<clipPath id="clip0_11644_18272">
<rect x="4.5" y="17.7822" width="177" height="102" rx="18" fill="white"/>
</clipPath>
<clipPath id="clip1_11644_18272">
<rect width="24.8008" height="24.867" fill="white" transform="translate(153 90)"/>
</clipPath>
</defs>
</svg>
