<svg width="11" height="17" viewBox="0 0 11 17" fill="none" xmlns="http://www.w3.org/2000/svg">
<path d="M5.4768 14.0168C4.4688 14.0168 3.6176 13.86 2.9232 13.5464C2.24 13.2216 1.7192 12.768 1.3608 12.1856C1.0024 11.592 0.8232 10.8976 0.8232 10.1024H2.6544C2.6544 10.4608 2.744 10.8192 2.9232 11.1776C3.1024 11.5248 3.3992 11.816 3.8136 12.0512C4.228 12.2752 4.7824 12.3872 5.4768 12.3872C6.4064 12.3872 7.1008 12.2024 7.56 11.8328C8.0192 11.4632 8.2488 11.0208 8.2488 10.5056C8.2488 10.0128 8.0416 9.604 7.6272 9.2792C7.224 8.9544 6.6192 8.7528 5.8128 8.6744L4.788 8.5904C3.6792 8.4896 2.7944 8.1536 2.1336 7.5824C1.4728 7.0112 1.1424 6.1992 1.1424 5.1464C1.1424 4.4184 1.3104 3.8024 1.6464 3.2984C1.9936 2.7944 2.4808 2.408 3.108 2.1392C3.7464 1.8704 4.4968 1.736 5.3592 1.736C6.244 1.736 7 1.8872 7.6272 2.1896C8.2544 2.4808 8.736 2.912 9.072 3.4832C9.408 4.0544 9.576 4.7376 9.576 5.5328H7.7448C7.7448 5.1632 7.6608 4.816 7.4928 4.4912C7.3248 4.1552 7.0672 3.8864 6.72 3.6848C6.3728 3.472 5.9192 3.3656 5.3592 3.3656C4.8552 3.3656 4.4296 3.444 4.0824 3.6008C3.7352 3.7464 3.4664 3.9592 3.276 4.2392C3.0856 4.508 2.9904 4.8104 2.9904 5.1464C2.9904 5.5832 3.1472 5.964 3.4608 6.2888C3.7856 6.6136 4.284 6.8096 4.956 6.8768L5.9808 6.9776C7.2352 7.0896 8.2376 7.4424 8.988 8.036C9.7384 8.6296 10.1136 9.4528 10.1136 10.5056C10.1136 11.2224 9.9232 11.844 9.5424 12.3704C9.1728 12.8968 8.6408 13.3056 7.9464 13.5968C7.2632 13.8768 6.44 14.0168 5.4768 14.0168ZM4.6032 16.1672V13.7144H6.3V16.1672H4.6032ZM4.536 2.5592V0.106399H6.2328V2.5592H4.536Z" fill="black"/>
</svg>
