<svg width="18" height="23" viewBox="0 0 18 23" fill="none" xmlns="http://www.w3.org/2000/svg">
<path d="M1.89286 13.5C1.16735 12.3082 0.75 10.9118 0.75 9.41886C0.75 5.04539 4.33172 1.5 8.75 1.5C13.1683 1.5 16.75 5.04539 16.75 9.41886C16.75 10.9118 16.3327 12.3082 15.6071 13.5" stroke="#475367" stroke-width="1.5" stroke-linecap="round"/>
<path d="M4.13287 16.5982C4.041 16.3216 3.99507 16.1833 4.00042 16.0713C4.01174 15.8343 4.16114 15.6262 4.38157 15.5405C4.48579 15.5 4.63105 15.5 4.92157 15.5H12.5784C12.869 15.5 13.0142 15.5 13.1184 15.5405C13.3389 15.6262 13.4883 15.8343 13.4996 16.0713C13.5049 16.1833 13.459 16.3216 13.3671 16.5982C13.1973 17.1094 13.1124 17.3651 12.9815 17.572C12.7072 18.0056 12.2772 18.3167 11.7806 18.4408C11.5435 18.5 11.275 18.5 10.7381 18.5H6.76186C6.22495 18.5 5.9565 18.5 5.71944 18.4408C5.22283 18.3167 4.79281 18.0056 4.5185 17.572C4.38755 17.3651 4.30266 17.1094 4.13287 16.5982Z" stroke="#475367" stroke-width="1.5"/>
<path d="M11.75 18.5L11.6207 19.1466C11.4793 19.8537 11.4086 20.2072 11.2501 20.4866C11.0052 20.9185 10.6082 21.2439 10.1366 21.3994C9.83158 21.5 9.47105 21.5 8.75 21.5C8.02895 21.5 7.66842 21.5 7.36338 21.3994C6.89175 21.2439 6.49484 20.9185 6.24987 20.4866C6.09144 20.2072 6.02073 19.8537 5.87932 19.1466L5.75 18.5" stroke="#475367" stroke-width="1.5"/>
<path d="M9.30214 6L7.78049 7.69458C7.5714 7.92743 7.69865 8.29939 8.00656 8.35537L9.49529 8.62605C9.82317 8.68567 9.93865 9.09658 9.68982 9.31826L7.80214 11" stroke="#475367" stroke-width="1.5" stroke-linecap="round" stroke-linejoin="round"/>
</svg>
