<svg width="24" height="24" viewBox="0 0 24 24" fill="none" xmlns="http://www.w3.org/2000/svg">
<g clip-path="url(#clip0_11749_18516)">
<path d="M12 24C18.6274 24 24 18.6274 24 12C24 5.37258 18.6274 0 12 0C5.37258 0 0 5.37258 0 12C0 18.6274 5.37258 24 12 24Z" fill="#0052B4"/>
<path d="M12.0003 4.69629L12.3888 5.89202H13.646L12.6289 6.63101L13.0174 7.82674L12.0003 7.08771L10.9831 7.82674L11.3716 6.63101L10.3545 5.89202H11.6117L12.0003 4.69629Z" fill="#FFDA44"/>
<path d="M6.83523 6.83577L7.95554 7.40652L8.84453 6.51758L8.64779 7.7593L9.76806 8.33009L8.52629 8.52678L8.32961 9.76859L7.75881 8.64833L6.51709 8.84506L7.40607 7.95608L6.83523 6.83577Z" fill="#FFDA44"/>
<path d="M4.6958 12.0003L5.89154 11.6117V10.3545L6.63047 11.3717L7.82625 10.9831L7.08718 12.0003L7.82625 13.0174L6.63047 12.6289L5.89154 13.6461V12.3888L4.6958 12.0003Z" fill="#FFDA44"/>
<path d="M6.83523 17.1662L7.40603 16.0459L6.51709 15.1569L7.75886 15.3537L8.32956 14.2334L8.52629 15.4752L9.76801 15.6719L8.64789 16.2426L8.84453 17.4844L7.95554 16.5954L6.83523 17.1662Z" fill="#FFDA44"/>
<path d="M12.0003 19.3052L11.6117 18.1094H10.3545L11.3717 17.3704L10.9831 16.1748L12.0003 16.9137L13.0174 16.1748L12.6289 17.3704L13.646 18.1094H12.3888L12.0003 19.3052Z" fill="#FFDA44"/>
<path d="M17.1652 17.1662L16.0449 16.5954L15.1559 17.4844L15.3526 16.2426L14.2324 15.6719L15.4741 15.4752L15.6708 14.2334L16.2416 15.3537L17.4833 15.1569L16.5943 16.046L17.1652 17.1662Z" fill="#FFDA44"/>
<path d="M19.3042 12.0003L18.1085 12.3888V13.6461L17.3695 12.6289L16.1738 13.0174L16.9128 12.0003L16.1738 10.9831L17.3695 11.3717L18.1085 10.3545V11.6118L19.3042 12.0003Z" fill="#FFDA44"/>
<path d="M17.1652 6.83572L16.5944 7.95603L17.4833 8.84502L16.2415 8.64824L15.6708 9.7685L15.4741 8.52674L14.2324 8.33L15.3526 7.75925L15.1559 6.51758L16.0449 7.40652L17.1652 6.83572Z" fill="#FFDA44"/>
</g>
<defs>
<clipPath id="clip0_11749_18516">
<rect width="24" height="24" fill="white"/>
</clipPath>
</defs>
</svg>
