<svg width="12" height="14" viewBox="0 0 12 14" fill="none" xmlns="http://www.w3.org/2000/svg">
<path d="M6.7704 13.252C5.124 13.252 3.864 12.7256 2.9904 11.6728C2.1168 10.62 1.68 9.0576 1.68 6.9856V6.7504C1.68 4.6672 2.1 3.1048 2.94 2.0632C3.7912 1.0104 5.0344 0.483998 6.6696 0.483998C7.6552 0.483998 8.4728 0.646398 9.1224 0.971199C9.772 1.296 10.2592 1.744 10.584 2.3152C10.92 2.8864 11.1048 3.5472 11.1384 4.2976H9.3912C9.3464 3.6256 9.0944 3.0992 8.6352 2.7184C8.1872 2.3264 7.532 2.1304 6.6696 2.1304C5.6056 2.1304 4.7992 2.4944 4.2504 3.2224C3.7128 3.9504 3.444 5.1656 3.444 6.868C3.444 8.5592 3.724 9.7744 4.284 10.5136C4.8552 11.2416 5.684 11.6056 6.7704 11.6056C7.6664 11.6056 8.3328 11.4096 8.7696 11.0176C9.2064 10.6256 9.4472 10.0992 9.492 9.4384H11.2392C11.2056 10.1888 11.0264 10.8496 10.7016 11.4208C10.3768 11.992 9.8896 12.44 9.24 12.7648C8.5904 13.0896 7.7672 13.252 6.7704 13.252ZM0.2688 8.884V7.6912H7.6776V8.884H0.2688ZM0.5712 6.3304V5.1376H7.98V6.3304H0.5712Z" fill="black"/>
</svg>
