<svg width="21" height="20" viewBox="0 0 21 20" fill="none" xmlns="http://www.w3.org/2000/svg">
<path d="M4.43188 11.6523C4.66992 12.0462 4.54358 12.5585 4.14968 12.7965C3.75579 13.0346 3.2435 12.9082 3.00545 12.5143C2.66704 11.9544 2.43744 11.4718 2.30242 11.1603C2.1091 10.7143 2.13715 10.2121 2.37267 9.7915C2.73206 9.14973 3.63994 7.66611 5.03913 6.33307C6.43511 5.00308 8.39938 3.75 10.8528 3.75C13.3062 3.75 15.2705 5.00308 16.6664 6.33307C18.0656 7.66611 18.9735 9.14973 19.3329 9.7915C19.5684 10.2121 19.5965 10.7143 19.4032 11.1603C19.2681 11.4718 19.0385 11.9544 18.7001 12.5143C18.4621 12.9082 17.9498 13.0346 17.5559 12.7965C17.162 12.5585 17.0357 12.0462 17.2737 11.6523C17.5459 11.2019 17.7348 10.8124 17.8493 10.5537C17.5112 9.95778 16.7104 8.67693 15.5168 7.53975C14.2839 6.36513 12.7111 5.41667 10.8528 5.41667C8.99449 5.41667 7.42167 6.36513 6.18877 7.53975C4.99517 8.67693 4.19437 9.95778 3.85625 10.5537C3.97081 10.8124 4.15969 11.2019 4.43188 11.6523Z" fill="#667185"/>
<path fill-rule="evenodd" clip-rule="evenodd" d="M10.8528 6.66667C8.5516 6.66667 6.68612 8.53215 6.68612 10.8333C6.68612 13.1345 8.5516 15 10.8528 15C13.154 15 15.0195 13.1345 15.0195 10.8333C15.0195 8.53215 13.154 6.66667 10.8528 6.66667ZM8.35279 10.8333C8.35279 9.45262 9.47208 8.33333 10.8528 8.33333C12.2335 8.33333 13.3528 9.45262 13.3528 10.8333C13.3528 12.214 12.2335 13.3333 10.8528 13.3333C9.47208 13.3333 8.35279 12.214 8.35279 10.8333Z" fill="#667185"/>
</svg>
