<svg width="21" height="20" viewBox="0 0 21 20" fill="none" xmlns="http://www.w3.org/2000/svg">
<path d="M18.1087 2.74408C18.4342 3.06951 18.4342 3.59715 18.1087 3.92259L4.77539 17.2559C4.44996 17.5814 3.92232 17.5814 3.59688 17.2559C3.27144 16.9305 3.27144 16.4028 3.59688 16.0774L16.9302 2.74408C17.2557 2.41864 17.7833 2.41864 18.1087 2.74408Z" fill="#667185"/>
<path d="M14.0191 4.4767C13.0805 4.03469 12.0222 3.75 10.8528 3.75C8.39938 3.75 6.43511 5.00308 5.03913 6.33307C3.63994 7.66611 2.73206 9.14973 2.37267 9.7915C2.13715 10.2121 2.1091 10.7143 2.30242 11.1603C2.43744 11.4718 2.66704 11.9544 3.00545 12.5143C3.2435 12.9082 3.75579 13.0346 4.14968 12.7965C4.54358 12.5585 4.66992 12.0462 4.43188 11.6523C4.15969 11.2019 3.97081 10.8124 3.85625 10.5537C4.19437 9.95778 4.99517 8.67693 6.18877 7.53975C7.42167 6.36513 8.99449 5.41667 10.8528 5.41667C11.5212 5.41667 12.1526 5.53937 12.7446 5.75116L14.0191 4.4767Z" fill="#667185"/>
<path d="M15.5949 7.61491C16.7454 8.73288 17.5186 9.97087 17.8493 10.5537C17.7348 10.8124 17.5459 11.2019 17.2737 11.6523C17.0357 12.0462 17.162 12.5585 17.5559 12.7965C17.9498 13.0346 18.4621 12.9082 18.7001 12.5143C19.0385 11.9544 19.2681 11.4718 19.4032 11.1603C19.5965 10.7143 19.5684 10.2121 19.3329 9.7915C18.9828 9.16625 18.112 7.74193 16.7735 6.43629L15.5949 7.61491Z" fill="#667185"/>
<path d="M10.8528 6.66667C11.1556 6.66667 11.4509 6.69898 11.7354 6.76034L10.0206 8.47519C9.30934 8.7262 8.74567 9.28987 8.49466 10.0011L6.77981 11.716C6.71845 11.4315 6.68614 11.1362 6.68614 10.8333C6.68614 8.53215 8.55162 6.66667 10.8528 6.66667Z" fill="#667185"/>
<path d="M10.8528 13.3333C10.5604 13.3333 10.2797 13.2831 10.0189 13.1909L8.76806 14.4418C9.38124 14.7968 10.0933 15 10.8528 15C13.154 15 15.0195 13.1345 15.0195 10.8333C15.0195 10.0738 14.8163 9.36177 14.4612 8.74859L13.2104 9.99947C13.3026 10.2603 13.3528 10.5409 13.3528 10.8333C13.3528 12.214 12.2335 13.3333 10.8528 13.3333Z" fill="#667185"/>
</svg>
