<svg width="10" height="13" viewBox="0 0 10 13" fill="none" xmlns="http://www.w3.org/2000/svg">
<path d="M3.03325 6.89292H2.76552C1.90001 6.89292 1.46725 6.89292 1.28279 6.60759C1.09833 6.32225 1.27409 5.92472 1.6256 5.12965L2.68239 2.73938C3.002 2.0165 3.1618 1.65506 3.47181 1.45253C3.78183 1.25 4.17529 1.25 4.96223 1.25H6.18106C7.13702 1.25 7.61501 1.25 7.79529 1.56229C7.97557 1.87458 7.73842 2.29176 7.26413 3.12613L6.63887 4.22609C6.40308 4.64089 6.28519 4.84828 6.28683 5.01806C6.28897 5.23868 6.40631 5.44195 6.59581 5.55327C6.74162 5.63894 6.97925 5.63894 7.45449 5.63894C8.05527 5.63894 8.35566 5.63894 8.51211 5.74293C8.71537 5.87804 8.82175 6.11978 8.78447 6.36185C8.75577 6.54818 8.55371 6.77162 8.14958 7.21849L4.92075 10.7889C4.28657 11.4901 3.96947 11.8408 3.75654 11.7298C3.5436 11.6188 3.64586 11.1563 3.85037 10.2311L4.25097 8.41893C4.4067 7.71448 4.48456 7.36225 4.2973 7.12759C4.11004 6.89292 3.75111 6.89292 3.03325 6.89292Z" stroke="#F3A218" stroke-width="0.875" stroke-linejoin="round"/>
</svg>
