<svg width="41" height="41" viewBox="0 0 41 41" fill="none" xmlns="http://www.w3.org/2000/svg">
<rect x="0.0722656" y="0.208984" width="40" height="40" rx="20" fill="#D0D5DD"/>
<path d="M27.5723 22.084L26.8796 21.5348C26.0914 20.9098 25.6973 20.5973 25.6973 20.209C25.6973 19.8207 26.0914 19.5082 26.8796 18.8832L27.5723 18.334M12.5723 18.334L13.2649 18.8832C14.0531 19.5082 14.4473 19.8207 14.4473 20.209C14.4473 20.5973 14.0531 20.9098 13.2649 21.5348L12.5723 22.084" stroke="#1D2739" stroke-width="1.25" stroke-linecap="round" stroke-linejoin="round"/>
<path d="M22.2151 27.709L22.3454 26.8267C22.4937 25.8225 22.5679 25.3204 22.9069 25.1245C23.2459 24.9286 23.7173 25.1153 24.6601 25.4888L25.4886 25.817M17.9288 12.709L17.7985 13.5913C17.6501 14.5955 17.576 15.0976 17.237 15.2935C16.898 15.4894 16.4266 15.3026 15.4837 14.9291L14.6553 14.601" stroke="#1D2739" stroke-width="1.25" stroke-linecap="round" stroke-linejoin="round"/>
<path d="M14.2393 25.8188L15.1312 25.4902C16.1463 25.1164 16.6538 24.9294 17.0186 25.1252C17.3834 25.3209 17.463 25.8229 17.6221 26.8268L17.7619 27.709M25.9059 14.5992L25.014 14.9277C23.9989 15.3016 23.4914 15.4886 23.1266 15.2928C22.7618 15.0971 22.6822 14.5951 22.5231 13.5911L22.3832 12.709" stroke="#1D2739" stroke-width="1.25" stroke-linecap="round" stroke-linejoin="round"/>
<path d="M25.9059 20.2092H14.2393M22.9893 25.2088L17.1559 15.209M22.9893 15.2092L17.1559 25.209" stroke="#1D2739" stroke-width="1.25" stroke-linejoin="round"/>
</svg>
