<svg width="70" height="70" viewBox="0 0 70 70" fill="none" xmlns="http://www.w3.org/2000/svg">
<rect width="70" height="70" rx="35" fill="#BCD5FF"/>
<path d="M48.125 38.2812L46.9129 37.3202C45.5335 36.2264 44.8437 35.6796 44.8437 35C44.8437 34.3204 45.5335 33.7736 46.9129 32.6798L48.125 31.7188M21.875 31.7188L23.0871 32.6798C24.4665 33.7736 25.1562 34.3204 25.1562 35C25.1562 35.6796 24.4665 36.2264 23.0871 37.3202L21.875 38.2812" stroke="#346FFF" stroke-width="2.1875" stroke-linecap="round" stroke-linejoin="round"/>
<path d="M38.7502 48.125L38.9783 46.5809C39.2378 44.8236 39.3676 43.945 39.9608 43.6021C40.554 43.2593 41.379 43.5861 43.029 44.2397L44.4788 44.814M31.2491 21.875L31.0211 23.4191C30.7615 25.1764 30.6318 26.055 30.0385 26.3979C29.4453 26.7407 28.6203 26.4139 26.9703 25.7603L25.5205 25.186" stroke="#346FFF" stroke-width="2.1875" stroke-linecap="round" stroke-linejoin="round"/>
<path d="M24.792 44.8171L26.3529 44.2422C28.1292 43.5879 29.0175 43.2608 29.6558 43.6033C30.2942 43.9458 30.4335 44.8243 30.712 46.5812L30.9567 48.125M45.2087 25.1829L43.6478 25.7578C41.8714 26.4121 40.9832 26.7392 40.3448 26.3967C39.7064 26.0542 39.5672 25.1757 39.2887 23.4188L39.044 21.875" stroke="#346FFF" stroke-width="2.1875" stroke-linecap="round" stroke-linejoin="round"/>
<path d="M45.2087 35.0004H24.792M40.1045 43.7496L29.8962 26.25M40.1045 26.2504L29.8962 43.75" stroke="#346FFF" stroke-width="2.1875" stroke-linejoin="round"/>
</svg>
