<svg width="25" height="24" viewBox="0 0 25 24" fill="none" xmlns="http://www.w3.org/2000/svg">
<path fill-rule="evenodd" clip-rule="evenodd" d="M14.8996 3.05C13.4773 1.98333 11.5218 1.98333 10.0996 3.05L3.22699 8.20442C2.12566 9.03042 1.52648 10.3647 1.6408 11.7366L2.27377 19.3322C2.44653 21.4053 4.1796 23 6.25995 23H18.7392C20.8195 23 22.5526 21.4053 22.7253 19.3322L23.3583 11.7366C23.4726 10.3647 22.8734 9.03042 21.7721 8.20442L14.8996 3.05ZM11.2996 4.65C12.0107 4.11667 12.9884 4.11667 13.6996 4.65L20.5721 9.80442C21.1228 10.2174 21.4224 10.8846 21.3652 11.5705L20.7322 19.1661C20.6459 20.2027 19.7793 21 18.7392 21H15.5864L15.7885 18.5744C15.9488 16.6503 14.4304 15 12.4996 15C10.5687 15 9.05027 16.6503 9.21062 18.5744L9.41275 21H6.25995C5.21977 21 4.35324 20.2027 4.26686 19.1661L3.63389 11.5705C3.57673 10.8846 3.87632 10.2174 4.42699 9.80442L11.2996 4.65ZM13.7954 18.4083L13.5794 21H11.4197L11.2037 18.4083C11.1405 17.6502 11.7388 17 12.4996 17C13.2603 17 13.8586 17.6502 13.7954 18.4083Z" fill="#0F973D"/>
</svg>
