<svg width="25" height="25" viewBox="0 0 25 25" fill="none" xmlns="http://www.w3.org/2000/svg">
<path d="M12.7482 2.50012C9.74043 2.50012 7.79018 4.51911 5.48371 5.25502C4.54589 5.55425 4.07697 5.70387 3.8872 5.91477C3.69743 6.12568 3.64186 6.43387 3.53072 7.05026C2.34143 13.6461 4.9409 19.7441 11.1403 22.1176C11.8064 22.3726 12.1394 22.5001 12.7515 22.5001C13.3635 22.5001 13.6966 22.3726 14.3626 22.1176C20.5616 19.7441 23.1586 13.6461 21.969 7.05025C21.8578 6.43376 21.8022 6.12552 21.6124 5.91461C21.4226 5.7037 20.9537 5.55417 20.0159 5.25511C17.7085 4.51927 15.7561 2.50012 12.7482 2.50012Z" stroke="#475367" stroke-width="1.5" stroke-linecap="round" stroke-linejoin="round"/>
<path d="M12.75 7.50012L12.75 9.50012" stroke="#141B34" stroke-width="1.5" stroke-linecap="round"/>
</svg>
