<svg width="33" height="33" viewBox="0 0 33 33" fill="none" xmlns="http://www.w3.org/2000/svg">
<circle cx="16.5" cy="16.5" r="16" fill="#141D57"/>
<g clip-path="url(#clip0_8285_18034)">
<path d="M14.6654 15.7363L11.382 19.5907C10.9414 20.1079 10.1534 20.1393 9.67295 19.6589C9.19253 19.1785 9.224 18.3904 9.7412 17.9498L13.5956 14.6665" stroke="#7FF68C" stroke-linejoin="round"/>
<path d="M19.9987 14.6981L16.6971 17.9997M14.6336 9.33301L11.332 12.6346M14.2209 9.74568L11.7448 12.2219C11.7448 12.2219 12.9828 13.8727 14.2209 15.1108C15.459 16.3489 17.1098 17.587 17.1098 17.587L19.586 15.1108C19.586 15.1108 18.3479 13.46 17.1098 12.2219C15.8717 10.9838 14.2209 9.74568 14.2209 9.74568Z" stroke="#7FF68C" stroke-linecap="round" stroke-linejoin="round"/>
<path d="M15.6357 22.4237C15.5016 22.6651 15.5886 22.9695 15.83 23.1036C16.0713 23.2377 16.3757 23.1507 16.5099 22.9093L15.6357 22.4237ZM16.5213 21.8591L16.9584 22.1019V22.1019L16.5213 21.8591ZM20.8209 22.9093C20.955 23.1507 21.2594 23.2377 21.5008 23.1036C21.7422 22.9695 21.8291 22.6651 21.695 22.4237L20.8209 22.9093ZM20.8094 21.8591L21.2465 21.6163L21.2465 21.6163L20.8094 21.8591ZM20.2572 21.038L20.5841 20.6597L20.5841 20.6597L20.2572 21.038ZM19.7283 20.7438L19.5757 21.2199V21.2199L19.7283 20.7438ZM17.0735 21.038L16.7466 20.6597L16.7466 20.6597L17.0735 21.038ZM17.6025 20.7438L17.4499 20.2676V20.2676L17.6025 20.7438ZM15.332 22.1665C15.0559 22.1665 14.832 22.3904 14.832 22.6665C14.832 22.9426 15.0559 23.1665 15.332 23.1665L15.332 22.1665ZM21.9987 23.1665C22.2748 23.1665 22.4987 22.9426 22.4987 22.6665C22.4987 22.3904 22.2748 22.1665 21.9987 22.1665V23.1665ZM16.5099 22.9093L16.9584 22.1019L16.0843 21.6163L15.6357 22.4237L16.5099 22.9093ZM21.695 22.4237L21.2465 21.6163L20.3723 22.1019L20.8209 22.9093L21.695 22.4237ZM21.2465 21.6163C21.0191 21.2071 20.8515 20.8907 20.5841 20.6597L19.9303 21.4163C20.0322 21.5044 20.1096 21.629 20.3723 22.1019L21.2465 21.6163ZM18.6654 21.1665C19.2475 21.1665 19.4269 21.1722 19.5757 21.2199L19.8809 20.2676C19.5475 20.1608 19.179 20.1665 18.6654 20.1665V21.1665ZM20.5841 20.6597C20.3801 20.4834 20.14 20.3507 19.8809 20.2676L19.5757 21.2199C19.7115 21.2635 19.832 21.3314 19.9303 21.4163L20.5841 20.6597ZM16.9584 22.1019C17.2211 21.629 17.2985 21.5044 17.4004 21.4163L16.7466 20.6597C16.4792 20.8907 16.3116 21.2071 16.0843 21.6163L16.9584 22.1019ZM18.6654 20.1665C18.1517 20.1665 17.7833 20.1608 17.4499 20.2676L17.7551 21.2199C17.9039 21.1722 18.0833 21.1665 18.6654 21.1665V20.1665ZM17.4004 21.4163C17.4988 21.3314 17.6192 21.2635 17.7551 21.2199L17.4499 20.2676C17.1908 20.3507 16.9506 20.4834 16.7466 20.6597L17.4004 21.4163ZM15.332 23.1665L21.9987 23.1665V22.1665L15.332 22.1665L15.332 23.1665Z" fill="#7FF68C"/>
<path d="M21.332 15.7574L22.6654 14.6665M21.332 17.9392L22.6654 18.6665" stroke="#7FF68C" stroke-linecap="round" stroke-linejoin="round"/>
</g>
<defs>
<clipPath id="clip0_8285_18034">
<rect width="16" height="16" fill="white" transform="translate(8 8)"/>
</clipPath>
</defs>
</svg>
