<svg width="23" height="22" viewBox="0 0 23 22" fill="none" xmlns="http://www.w3.org/2000/svg">
<path d="M8 13.5H15M8 8.5H11.5" stroke="#141B34" stroke-width="1.5" stroke-linecap="round" stroke-linejoin="round"/>
<path d="M13.6706 19.8905C17.8536 19.6125 21.1856 16.2332 21.4598 11.9909C21.5134 11.1607 21.5134 10.3009 21.4598 9.47072C21.1856 5.22838 17.8536 1.84913 13.6706 1.57107C12.2435 1.47621 10.7536 1.47641 9.3294 1.57107C5.14639 1.84913 1.81441 5.22838 1.54024 9.47072C1.48659 10.3009 1.48659 11.1607 1.54024 11.9909C1.6401 13.536 2.32343 14.9666 3.12791 16.1746C3.59501 17.0203 3.28674 18.0758 2.80021 18.9978C2.44941 19.6626 2.27401 19.995 2.41484 20.2351C2.55568 20.4752 2.87026 20.4829 3.49943 20.4982C4.74367 20.5285 5.58268 20.1757 6.24868 19.6846C6.6264 19.4061 6.81527 19.2668 6.94544 19.2508C7.0756 19.2348 7.33177 19.3403 7.84401 19.5513C8.3044 19.7409 8.83896 19.8579 9.3294 19.8905C10.7536 19.9852 12.2435 19.9854 13.6706 19.8905Z" stroke="#141B34" stroke-width="1.5" stroke-linejoin="round"/>
</svg>
