<svg width="51" height="50" viewBox="0 0 51 50" fill="none" xmlns="http://www.w3.org/2000/svg">
<circle cx="25.5" cy="25" r="25" fill="#141D57"/>
<path d="M15.8348 33.5559C16.1159 35.6437 17.8452 37.2794 19.9496 37.3761C21.7203 37.4575 23.5191 37.5 25.5 37.5C27.4809 37.5 29.2797 37.4575 31.0504 37.3761C33.1548 37.2794 34.8841 35.6437 35.1652 33.5559C35.3487 32.1934 35.5 30.797 35.5 29.375C35.5 27.953 35.3487 26.5566 35.1652 25.1941C34.8841 23.1063 33.1548 21.4706 31.0504 21.3739C29.2797 21.2925 27.4809 21.25 25.5 21.25C23.5191 21.25 21.7203 21.2925 19.9496 21.3739C17.8452 21.4706 16.1159 23.1063 15.8348 25.1941C15.6513 26.5566 15.5 27.953 15.5 29.375C15.5 30.797 15.6513 32.1934 15.8348 33.5559Z" stroke="#B7FBBE" stroke-width="1.875"/>
<path d="M19.875 21.25V18.125C19.875 15.0184 22.3934 12.5 25.5 12.5C28.6066 12.5 31.125 15.0184 31.125 18.125V21.25" stroke="#B7FBBE" stroke-width="1.875" stroke-linecap="round" stroke-linejoin="round"/>
<path d="M25.4951 29.375H25.5063" stroke="#B7FBBE" stroke-width="2.5" stroke-linecap="round" stroke-linejoin="round"/>
</svg>
