<svg width="41" height="41" viewBox="0 0 41 41" fill="none" xmlns="http://www.w3.org/2000/svg">
<rect x="0.78125" y="0.208984" width="40" height="40" rx="20" fill="#D0D5DD"/>
<path d="M23.6976 20.2087C23.6976 21.8195 22.3918 23.1253 20.7809 23.1253C19.1701 23.1253 17.8643 21.8195 17.8643 20.2087C17.8643 18.5978 19.1701 17.292 20.7809 17.292C22.3918 17.292 23.6976 18.5978 23.6976 20.2087Z" stroke="#1D2739" stroke-width="1.25"/>
<path d="M28.1061 17.8357C28.778 18.9938 29.1139 19.5728 29.1139 20.209C29.1139 20.8451 28.778 21.4242 28.1061 22.5823L26.503 25.3455C25.8338 26.499 25.4992 27.0758 24.9489 27.3924C24.3986 27.709 23.7307 27.709 22.395 27.709L19.1662 27.709C17.8304 27.709 17.1626 27.709 16.6123 27.3924C16.062 27.0758 15.7274 26.499 15.0582 25.3455L13.4551 22.5823C12.7832 21.4242 12.4473 20.8451 12.4473 20.209C12.4473 19.5728 12.7832 18.9938 13.4551 17.8357L15.0582 15.0725C15.7274 13.919 16.062 13.3422 16.6123 13.0256C17.1626 12.709 17.8305 12.709 19.1662 12.709L22.395 12.709C23.7307 12.709 24.3986 12.709 24.9489 13.0256C25.4992 13.3422 25.8338 13.919 26.503 15.0725L28.1061 17.8357Z" stroke="#1D2739" stroke-width="1.25"/>
</svg>
