<svg width="10" height="12" viewBox="0 0 10 12" fill="none" xmlns="http://www.w3.org/2000/svg">
<path d="M1.3776 12V7.7328H0.168V6.6072H1.3776V5.28H0.168V4.1544H1.3776V0.00479841H3.3936L4.9056 4.1544H6.7536V0.00479841H8.232V4.1544H9.4416V5.28H8.232V6.6072H9.4416V7.7328H8.232V12H6.216L4.6872 7.7328H2.856V12H1.3776ZM2.856 6.6072H4.3008L3.8304 5.28H2.8224L2.856 6.6072ZM6.7704 9.564H6.8376L6.7872 7.7328H6.1488L6.7704 9.564ZM2.8056 4.1544H3.444L2.8056 2.2056H2.7384L2.8056 4.1544ZM5.7624 6.6072H6.7872L6.7536 5.28H5.292L5.7624 6.6072Z" fill="black"/>
</svg>
