<svg width="33" height="33" viewBox="0 0 33 33" fill="none" xmlns="http://www.w3.org/2000/svg">
<circle cx="16.25" cy="16.1289" r="16" fill="#141D57"/>
<g clip-path="url(#clip0_8326_25246)">
<circle cx="16.2503" cy="16.1292" r="1.33333" stroke="#7FF68C" stroke-linecap="round"/>
<path d="M10.9173 20.1302C10.0801 19.0159 9.58398 17.6307 9.58398 16.1296C9.58398 12.4477 12.5688 9.46289 16.2507 9.46289C19.9325 9.46289 22.9173 12.4477 22.9173 16.1296C22.9173 17.6307 22.4212 19.0159 21.584 20.1302" stroke="#7FF68C" stroke-linecap="round"/>
<path d="M13.2695 18.7965C12.6361 18.0889 12.251 17.1544 12.251 16.1299C12.251 13.9207 14.0418 12.1299 16.251 12.1299C18.4601 12.1299 20.251 13.9207 20.251 16.1299C20.251 17.1544 19.8658 18.0889 19.2325 18.7965" stroke="#7FF68C" stroke-linecap="round"/>
<path d="M16.251 17.4629L16.251 20.7962" stroke="#7FF68C" stroke-linecap="round"/>
<path d="M17.0922 20.7959H15.4091C15.2285 20.7959 15.1381 20.7959 15.0519 20.8081C14.8773 20.8327 14.7118 20.8942 14.5689 20.9874C14.4984 21.0335 14.4345 21.0907 14.3067 21.2053C13.8865 21.582 13.6764 21.7703 13.6211 21.9215C13.5066 22.2344 13.6642 22.5754 13.992 22.7241C14.1503 22.7959 14.4474 22.7959 15.0417 22.7959H17.4596C18.0539 22.7959 18.351 22.7959 18.5093 22.7241C18.8371 22.5754 18.9947 22.2344 18.8802 21.9215C18.8249 21.7703 18.6148 21.582 18.1946 21.2053C18.0668 21.0907 18.0029 21.0335 17.9324 20.9874C17.7895 20.8942 17.624 20.8327 17.4494 20.8081C17.3632 20.7959 17.2728 20.7959 17.0922 20.7959Z" stroke="#7FF68C" stroke-linecap="round"/>
</g>
<defs>
<clipPath id="clip0_8326_25246">
<rect width="16" height="16" fill="white" transform="translate(8.25 8.12891)"/>
</clipPath>
</defs>
</svg>
