<svg width="32" height="32" viewBox="0 0 32 32" fill="none" xmlns="http://www.w3.org/2000/svg">
<circle cx="16" cy="16" r="16" fill="#141D57"/>
<path d="M9.33398 13.7134C9.33398 12.9159 9.65557 12.4272 10.3211 12.0568L13.0606 10.5323C14.4961 9.73342 15.2138 9.33398 16.0007 9.33398C16.7875 9.33398 17.5053 9.73342 18.9407 10.5323L21.6802 12.0568C22.3457 12.4272 22.6673 12.9159 22.6673 13.7134C22.6673 13.9296 22.6673 14.0377 22.6437 14.1266C22.5196 14.5936 22.0965 14.6673 21.6878 14.6673H10.3135C9.90483 14.6673 9.48166 14.5936 9.3576 14.1266C9.33398 14.0377 9.33398 13.9296 9.33398 13.7134Z" stroke="#7FF68C"/>
<path d="M15.9979 12.667H16.0039" stroke="#7FF68C" stroke-width="1.33333" stroke-linecap="round" stroke-linejoin="round"/>
<path d="M10.667 14.667V20.3337M13.3337 14.667V20.3337" stroke="#7FF68C"/>
<path d="M18.667 14.667V20.3337M21.3337 14.667V20.3337" stroke="#7FF68C"/>
<path d="M20.6673 20.334H11.334C10.2294 20.334 9.33398 21.2294 9.33398 22.334C9.33398 22.5181 9.48322 22.6673 9.66732 22.6673H22.334C22.5181 22.6673 22.6673 22.5181 22.6673 22.334C22.6673 21.2294 21.7719 20.334 20.6673 20.334Z" stroke="#7FF68C"/>
</svg>
