<svg width="33" height="33" viewBox="0 0 33 33" fill="none" xmlns="http://www.w3.org/2000/svg">
<circle cx="16.25" cy="16.1289" r="16" fill="#141D57"/>
<g clip-path="url(#clip0_8326_25228)">
<path d="M11.6779 17.4629C11.1942 16.6683 10.916 15.7374 10.916 14.7421C10.916 11.8265 13.3038 9.46289 16.2493 9.46289C19.1949 9.46289 21.5827 11.8265 21.5827 14.7421C21.5827 15.7374 21.3045 16.6683 20.8208 17.4629" stroke="#7FF68C" stroke-linecap="round"/>
<path d="M13.1716 19.5281C13.1103 19.3436 13.0797 19.2514 13.0833 19.1767C13.0908 19.0188 13.1904 18.8801 13.3374 18.8229C13.4069 18.7959 13.5037 18.7959 13.6974 18.7959H18.802C18.9956 18.7959 19.0925 18.7959 19.162 18.8229C19.3089 18.8801 19.4085 19.0188 19.4161 19.1767C19.4196 19.2514 19.389 19.3436 19.3278 19.5281C19.2146 19.8689 19.158 20.0393 19.0707 20.1773C18.8878 20.4663 18.6011 20.6737 18.27 20.7564C18.112 20.7959 17.933 20.7959 17.5751 20.7959H14.9243C14.5663 20.7959 14.3873 20.7959 14.2293 20.7564C13.8982 20.6737 13.6115 20.4663 13.4287 20.1773C13.3414 20.0393 13.2848 19.8689 13.1716 19.5281Z" stroke="#7FF68C"/>
<path d="M18.249 20.7959L18.1628 21.227C18.0685 21.6983 18.0214 21.934 17.9158 22.1203C17.7525 22.4083 17.4879 22.6252 17.1734 22.7289C16.9701 22.7959 16.7297 22.7959 16.249 22.7959C15.7683 22.7959 15.528 22.7959 15.3246 22.7289C15.0102 22.6252 14.7456 22.4083 14.5823 22.1203C14.4766 21.934 14.4295 21.6983 14.3352 21.227L14.249 20.7959" stroke="#7FF68C"/>
<path d="M16.6171 12.4629L15.6027 13.5926C15.4633 13.7478 15.5481 13.9958 15.7534 14.0331L16.7459 14.2136C16.9645 14.2533 17.0415 14.5273 16.8756 14.6751L15.6171 15.7962" stroke="#7FF68C" stroke-linecap="round" stroke-linejoin="round"/>
</g>
<defs>
<clipPath id="clip0_8326_25228">
<rect width="16" height="16" fill="white" transform="translate(8.25 8.12891)"/>
</clipPath>
</defs>
</svg>
