<svg width="10" height="13" viewBox="0 0 10 13" fill="none" xmlns="http://www.w3.org/2000/svg">
<path d="M1.9992 13V4.7512C1.9992 3.4184 2.3856 2.3936 3.1584 1.6768C3.9312 0.948799 5.04 0.584799 6.4848 0.584799C6.7424 0.584799 7.0448 0.595999 7.392 0.618398C7.7392 0.629598 8.0752 0.646398 8.4 0.668799C8.7248 0.691198 8.9936 0.719198 9.2064 0.752799V2.3992C8.9936 2.3656 8.7192 2.3376 8.3832 2.3152C8.0472 2.2928 7.7056 2.276 7.3584 2.2648C7.0112 2.2424 6.7088 2.2312 6.4512 2.2312C5.8688 2.2312 5.376 2.3208 4.9728 2.5C4.5808 2.6792 4.284 2.9648 4.0824 3.3568C3.8808 3.7488 3.78 4.2528 3.78 4.8688V13H1.9992ZM0.7224 13V11.4544H8.988V13H0.7224ZM0.8232 7.708V6.364H7.9464V7.708H0.8232ZM8.3832 13V9.9088H9.9792V13H8.3832Z" fill="black"/>
</svg>
