<svg width="32" height="32" viewBox="0 0 32 32" fill="none" xmlns="http://www.w3.org/2000/svg">
<circle cx="16" cy="16" r="15.5" fill="#F0F2F5" stroke="#D0D5DD"/>
<path d="M8.10794 18.3074C7.93073 19.4691 8.72301 20.2754 9.69305 20.6772C13.412 22.2178 18.5873 22.2178 22.3063 20.6772C23.2763 20.2754 24.0686 19.4691 23.8914 18.3074C23.7825 17.5934 23.244 16.999 22.845 16.4184C22.3224 15.6487 22.2705 14.8092 22.2704 13.916C22.2704 10.4642 19.4629 7.66602 15.9997 7.66602C12.5364 7.66602 9.72895 10.4642 9.72895 13.916C9.72887 14.8092 9.67694 15.6487 9.15435 16.4184C8.75537 16.999 8.21685 17.5934 8.10794 18.3074Z" stroke="#475367" stroke-width="1.25" stroke-linecap="round" stroke-linejoin="round"/>
<path d="M12.6665 21.833C13.0486 23.2707 14.3961 24.333 15.9998 24.333C17.6036 24.333 18.9511 23.2707 19.3332 21.833" stroke="#475367" stroke-width="1.25" stroke-linecap="round" stroke-linejoin="round"/>
</svg>
