<svg width="33" height="33" viewBox="0 0 33 33" fill="none" xmlns="http://www.w3.org/2000/svg">
<circle cx="16.25" cy="16.1289" r="16" fill="#141D57"/>
<path d="M10.25 12.1289C10.25 11.1861 10.25 10.7147 10.5429 10.4218C10.8358 10.1289 11.3072 10.1289 12.25 10.1289C13.1928 10.1289 13.6642 10.1289 13.9571 10.4218C14.25 10.7147 14.25 11.1861 14.25 12.1289C14.25 13.0717 14.25 13.5431 13.9571 13.836C13.6642 14.1289 13.1928 14.1289 12.25 14.1289C11.3072 14.1289 10.8358 14.1289 10.5429 13.836C10.25 13.5431 10.25 13.0717 10.25 12.1289Z" stroke="#7FF68C"/>
<path d="M10.25 20.1289C10.25 19.1861 10.25 18.7147 10.5429 18.4218C10.8358 18.1289 11.3072 18.1289 12.25 18.1289C13.1928 18.1289 13.6642 18.1289 13.9571 18.4218C14.25 18.7147 14.25 19.1861 14.25 20.1289C14.25 21.0717 14.25 21.5431 13.9571 21.836C13.6642 22.1289 13.1928 22.1289 12.25 22.1289C11.3072 22.1289 10.8358 22.1289 10.5429 21.836C10.25 21.5431 10.25 21.0717 10.25 20.1289Z" stroke="#7FF68C"/>
<path d="M10.25 16.1289L14.25 16.1289" stroke="#7FF68C" stroke-linecap="round" stroke-linejoin="round"/>
<path d="M16.25 10.1289V13.4622" stroke="#7FF68C" stroke-linecap="round" stroke-linejoin="round"/>
<path d="M18.25 12.1289C18.25 11.1861 18.25 10.7147 18.5429 10.4218C18.8358 10.1289 19.3072 10.1289 20.25 10.1289C21.1928 10.1289 21.6642 10.1289 21.9571 10.4218C22.25 10.7147 22.25 11.1861 22.25 12.1289C22.25 13.0717 22.25 13.5431 21.9571 13.836C21.6642 14.1289 21.1928 14.1289 20.25 14.1289C19.3072 14.1289 18.8358 14.1289 18.5429 13.836C18.25 13.5431 18.25 13.0717 18.25 12.1289Z" stroke="#7FF68C"/>
<path d="M22.25 16.1289H18.25C17.3072 16.1289 16.8358 16.1289 16.5429 16.4218C16.25 16.7147 16.25 17.1861 16.25 18.1289M16.25 19.9751V21.8212M18.25 18.1289V19.1289C18.25 20.0931 18.7724 20.1289 19.5833 20.1289C19.9515 20.1289 20.25 20.4274 20.25 20.7956M18.9167 22.1289H18.25M20.25 18.1289C21.1928 18.1289 21.6642 18.1289 21.9571 18.4222C22.25 18.7155 22.25 19.1876 22.25 20.1318C22.25 21.076 22.25 21.5481 21.9571 21.8414C21.7433 22.0554 21.4345 22.1133 20.9167 22.1289" stroke="#7FF68C" stroke-linecap="round"/>
</svg>
