<svg width="62" height="25" viewBox="0 0 62 25" fill="none" xmlns="http://www.w3.org/2000/svg">
<rect x="0.5" y="0.5" width="61" height="24" rx="12" fill="#FEF6E7"/>
<rect x="0.5" y="0.5" width="61" height="24" rx="12" stroke="#DD900D"/>
<path d="M11.0332 12.8929H10.7655C9.90001 12.8929 9.46725 12.8929 9.28279 12.6076C9.09833 12.3223 9.27409 11.9247 9.6256 11.1296L10.6824 8.73938C11.002 8.0165 11.1618 7.65506 11.4718 7.45253C11.7818 7.25 12.1753 7.25 12.9622 7.25H14.1811C15.137 7.25 15.615 7.25 15.7953 7.56229C15.9756 7.87458 15.7384 8.29176 15.2641 9.12613L14.6389 10.2261C14.4031 10.6409 14.2852 10.8483 14.2868 11.0181C14.289 11.2387 14.4063 11.4419 14.5958 11.5533C14.7416 11.6389 14.9792 11.6389 15.4545 11.6389C16.0553 11.6389 16.3557 11.6389 16.5121 11.7429C16.7154 11.878 16.8217 12.1198 16.7845 12.3619C16.7558 12.5482 16.5537 12.7716 16.1496 13.2185L12.9207 16.7889C12.2866 17.4901 11.9695 17.8408 11.7565 17.7298C11.5436 17.6188 11.6459 17.1563 11.8504 16.2311L12.251 14.4189C12.4067 13.7145 12.4846 13.3623 12.2973 13.1276C12.11 12.8929 11.7511 12.8929 11.0332 12.8929Z" stroke="#DD900D" stroke-width="0.875" stroke-linejoin="round"/>
<path d="M25.272 17V8.192H26.448V17H25.272ZM30.684 17L27.78 13.1H29.16L32.112 17H30.684ZM26.004 13.832V12.788H28.356C28.724 12.788 29.04 12.712 29.304 12.56C29.568 12.408 29.772 12.2 29.916 11.936C30.06 11.664 30.132 11.356 30.132 11.012C30.132 10.668 30.06 10.364 29.916 10.1C29.772 9.828 29.568 9.616 29.304 9.464C29.04 9.304 28.724 9.224 28.356 9.224H26.004V8.192H28.14C28.78 8.192 29.34 8.288 29.82 8.48C30.3 8.672 30.672 8.968 30.936 9.368C31.2 9.768 31.332 10.284 31.332 10.916V11.108C31.332 11.74 31.196 12.256 30.924 12.656C30.66 13.056 30.288 13.352 29.808 13.544C29.336 13.736 28.78 13.832 28.14 13.832H26.004ZM37.3823 17V15.08H37.1903V12.86C37.1903 12.42 37.0743 12.088 36.8423 11.864C36.6183 11.64 36.2863 11.528 35.8463 11.528C35.5983 11.528 35.3423 11.532 35.0783 11.54C34.8143 11.548 34.5623 11.556 34.3223 11.564C34.0823 11.572 33.8743 11.584 33.6983 11.6V10.592C33.8743 10.576 34.0583 10.564 34.2503 10.556C34.4503 10.54 34.6543 10.532 34.8623 10.532C35.0703 10.524 35.2703 10.52 35.4623 10.52C36.1183 10.52 36.6543 10.6 37.0703 10.76C37.4863 10.912 37.7943 11.164 37.9943 11.516C38.1943 11.868 38.2943 12.344 38.2943 12.944V17H37.3823ZM35.2823 17.168C34.8023 17.168 34.3863 17.088 34.0343 16.928C33.6903 16.76 33.4223 16.52 33.2303 16.208C33.0463 15.896 32.9543 15.52 32.9543 15.08C32.9543 14.624 33.0543 14.244 33.2543 13.94C33.4623 13.636 33.7623 13.408 34.1543 13.256C34.5463 13.096 35.0183 13.016 35.5703 13.016H37.3103V13.88H35.5223C35.0583 13.88 34.7023 13.992 34.4543 14.216C34.2063 14.44 34.0823 14.728 34.0823 15.08C34.0823 15.432 34.2063 15.716 34.4543 15.932C34.7023 16.148 35.0583 16.256 35.5223 16.256C35.7943 16.256 36.0543 16.208 36.3023 16.112C36.5503 16.008 36.7543 15.84 36.9143 15.608C37.0823 15.368 37.1743 15.04 37.1903 14.624L37.5023 15.08C37.4623 15.536 37.3503 15.92 37.1663 16.232C36.9903 16.536 36.7423 16.768 36.4223 16.928C36.1103 17.088 35.7303 17.168 35.2823 17.168ZM42.9047 17.072C42.4247 17.072 42.0087 17.004 41.6567 16.868C41.3127 16.732 41.0447 16.5 40.8527 16.172C40.6687 15.836 40.5767 15.384 40.5767 14.816V8.648H41.6807V14.96C41.6807 15.304 41.7727 15.572 41.9567 15.764C42.1487 15.948 42.4167 16.04 42.7607 16.04H43.8887V17.072H42.9047ZM39.4727 11.456V10.592H43.8887V11.456H39.4727ZM48.1952 17.216C47.6352 17.216 47.1512 17.12 46.7432 16.928C46.3352 16.736 46.0032 16.484 45.7472 16.172C45.4912 15.852 45.2992 15.496 45.1712 15.104C45.0512 14.712 44.9912 14.312 44.9912 13.904V13.688C44.9912 13.272 45.0512 12.868 45.1712 12.476C45.2992 12.084 45.4912 11.732 45.7472 11.42C46.0032 11.1 46.3272 10.848 46.7192 10.664C47.1192 10.472 47.5872 10.376 48.1232 10.376C48.8192 10.376 49.3912 10.528 49.8392 10.832C50.2952 11.128 50.6312 11.512 50.8472 11.984C51.0712 12.456 51.1832 12.96 51.1832 13.496V14.012H45.4952V13.148H50.3432L50.0792 13.616C50.0792 13.16 50.0072 12.768 49.8632 12.44C49.7192 12.104 49.5032 11.844 49.2152 11.66C48.9272 11.476 48.5632 11.384 48.1232 11.384C47.6672 11.384 47.2872 11.488 46.9832 11.696C46.6872 11.904 46.4632 12.188 46.3112 12.548C46.1672 12.908 46.0952 13.324 46.0952 13.796C46.0952 14.252 46.1672 14.664 46.3112 15.032C46.4632 15.392 46.6952 15.68 47.0072 15.896C47.3192 16.104 47.7152 16.208 48.1952 16.208C48.6992 16.208 49.1072 16.096 49.4192 15.872C49.7392 15.648 49.9312 15.388 49.9952 15.092H51.0752C50.9872 15.532 50.8112 15.912 50.5472 16.232C50.2832 16.552 49.9512 16.796 49.5512 16.964C49.1512 17.132 48.6992 17.216 48.1952 17.216Z" fill="#DD900D"/>
</svg>
