<svg width="21" height="20" viewBox="0 0 21 20" fill="none" xmlns="http://www.w3.org/2000/svg">
<path fill-rule="evenodd" clip-rule="evenodd" d="M9.91699 1.66699C5.77486 1.66699 2.41699 5.02486 2.41699 9.16699C2.41699 13.3091 5.77486 16.667 9.91699 16.667C11.6878 16.667 13.3153 16.0533 14.5984 15.0269L17.6611 18.0896C17.9865 18.415 18.5141 18.415 18.8396 18.0896C19.165 17.7641 19.165 17.2365 18.8396 16.9111L15.7769 13.8484C16.8033 12.5653 17.417 10.9378 17.417 9.16699C17.417 5.02486 14.0591 1.66699 9.91699 1.66699ZM4.08366 9.16699C4.08366 5.94533 6.69533 3.33366 9.91699 3.33366C13.1387 3.33366 15.7503 5.94533 15.7503 9.16699C15.7503 12.3887 13.1387 15.0003 9.91699 15.0003C6.69533 15.0003 4.08366 12.3887 4.08366 9.16699Z" fill="#667185"/>
</svg>
