<svg width="32" height="32" viewBox="0 0 32 32" fill="none" xmlns="http://www.w3.org/2000/svg">
<circle cx="16" cy="16" r="16" fill="#141D57"/>
<path d="M16 7.97949C11.5895 7.97949 8 11.5871 8 16.0211C8 20.4551 11.5895 24.0211 16 24.0211C20.4105 24.0211 24 20.4316 24 16.0211C24 11.6106 20.4116 7.97949 16 7.97949ZM16 23.2887C11.9931 23.2887 8.73242 20.0291 8.73242 16.0211C8.73242 12.0131 11.9931 8.75568 16 8.75568C20.0069 8.75568 23.2665 12.0153 23.2665 16.0222C23.2665 20.0291 20.0069 23.2898 16 23.2898V23.2887ZM16 9.35998C12.3262 9.35998 9.33778 12.3484 9.33778 16.0211C9.33778 19.6939 12.3262 22.6833 16 22.6833C19.6738 22.6833 22.6612 19.695 22.6612 16.0211C22.6612 12.3473 19.6738 9.35998 16 9.35998ZM16 21.9648C12.7223 21.9648 10.0563 19.2989 10.0563 16.0211C10.0563 12.7434 12.7223 10.0358 16 10.0358C19.2777 10.0358 21.9426 12.721 21.9426 16.0211C21.9426 19.3213 19.2767 21.9648 16 21.9648Z" fill="#7FF68C"/>
<path d="M20.6021 18.2246C19.9391 19.8603 18.4444 21.0379 16.7009 21.2984C16.45 21.3358 16.2002 21.354 15.9514 21.354C14.888 21.354 13.8556 21.0155 12.9854 20.3706C11.9114 19.5752 11.211 18.4094 11.0145 17.0876C10.9313 16.5335 10.9419 15.9761 11.0444 15.4316L13.0655 15.8117C13.0324 15.9879 13.0164 16.1662 13.0164 16.3456H15.9685V18.4029H13.8492C13.9591 18.5161 14.0798 18.6218 14.21 18.7179C14.8421 19.1866 15.6194 19.3799 16.3977 19.2635C17.4248 19.1108 18.3056 18.4168 18.6953 17.4527L20.6021 18.2246Z" fill="#7FF68C"/>
</svg>
