<svg width="54" height="54" viewBox="0 0 54 54" fill="none" xmlns="http://www.w3.org/2000/svg">
<rect width="54" height="54" rx="13.75" fill="#F0F2F5"/>
<path d="M36 26V25C36 21.2288 36 19.3431 34.7595 18.1716C33.519 17 31.5225 17 27.5294 17L26.4706 17C22.4775 17 20.481 17 19.2405 18.1716C18 19.3431 18 21.2288 18 25L18 29C18 32.7712 18 34.6569 19.2405 35.8284C20.481 37 22.4775 37 26.4706 37H27" stroke="#1D2739" stroke-width="1.5" stroke-linecap="round"/>
<path d="M23 22H31" stroke="#1D2739" stroke-width="1.5" stroke-linecap="round"/>
<path d="M23 27H28" stroke="#1D2739" stroke-width="1.5" stroke-linecap="round"/>
<path d="M36 35.6471L36 32C36 30.5706 34.6569 29 33 29C31.3431 29 30 30.5706 30 32L30 35.5C30 36.2797 30.7326 37 31.6364 37C32.5401 37 33.2727 36.2797 33.2727 35.5L33.2727 32.7647" stroke="#1D2739" stroke-width="1.5" stroke-linecap="round"/>
</svg>
