<svg width="33" height="33" viewBox="0 0 33 33" fill="none" xmlns="http://www.w3.org/2000/svg">
<circle cx="16.5" cy="16.5" r="16" fill="#141D57"/>
<path d="M22.5 15.8335V15.1668C22.5 12.6527 22.5 11.3956 21.673 10.6145C20.846 9.8335 19.515 9.8335 16.8529 9.8335L16.1471 9.8335C13.485 9.8335 12.154 9.8335 11.327 10.6145C10.5 11.3956 10.5 12.6527 10.5 15.1668L10.5 17.8335C10.5 20.3477 10.5 21.6047 11.327 22.3858C12.154 23.1668 13.485 23.1668 16.1471 23.1668H16.5" stroke="#7FF68C" stroke-linecap="round"/>
<path d="M13.834 13.1665H19.1673" stroke="#7FF68C" stroke-linecap="round"/>
<path d="M13.834 16.5H17.1673" stroke="#7FF68C" stroke-linecap="round"/>
<path d="M22.5 22.2649L22.5 19.8335C22.5 18.8805 21.6046 17.8335 20.5 17.8335C19.3954 17.8335 18.5 18.8805 18.5 19.8335L18.5 22.1668C18.5 22.6866 18.9884 23.1668 19.5909 23.1668C20.1934 23.1668 20.6818 22.6866 20.6818 22.1668L20.6818 20.3433" stroke="#7FF68C" stroke-linecap="round"/>
</svg>
