<svg width="33" height="33" viewBox="0 0 33 33" fill="none" xmlns="http://www.w3.org/2000/svg">
<circle cx="16.5" cy="16.5" r="16" fill="#141D57"/>
<path d="M18.5 16.4998C18.5 15.7635 19.097 15.1665 19.8333 15.1665C21.3061 15.1665 22.5 16.3604 22.5 17.8332C22.5 19.3059 21.3061 20.4998 19.8333 20.4998C19.097 20.4998 18.5 19.9029 18.5 19.1665V16.4998Z" stroke="#7FF68C"/>
<path d="M14.5 16.4998C14.5 15.7635 13.903 15.1665 13.1667 15.1665C11.6939 15.1665 10.5 16.3604 10.5 17.8332C10.5 19.3059 11.6939 20.4998 13.1667 20.4998C13.903 20.4998 14.5 19.9029 14.5 19.1665V16.4998Z" stroke="#7FF68C"/>
<path d="M10.5 17.8335V15.8335C10.5 12.5198 13.1863 9.8335 16.5 9.8335C19.8137 9.8335 22.5 12.5198 22.5 15.8335V19.0643C22.5 20.4032 22.5 21.0726 22.2651 21.5946C21.9977 22.1888 21.5219 22.6645 20.9278 22.9319C20.4058 23.1668 19.7363 23.1668 18.3974 23.1668H16.5" stroke="#7FF68C" stroke-linecap="round" stroke-linejoin="round"/>
</svg>
