<svg width="91" height="79" viewBox="0 0 91 79" fill="none" xmlns="http://www.w3.org/2000/svg">
<path d="M52.8774 23.2779L77.8538 3.11318L75.935 12.043C75.6633 13.3074 76.6265 14.5005 77.9197 14.5014L87.0534 14.508L62.0771 34.6727L52.8774 23.2779Z" stroke="#0EB622" stroke-width="2.43788"/>
<path d="M28.924 43.3395L3.94766 63.5041L13.0813 63.5107C14.3746 63.5117 15.3378 64.7047 15.0661 65.9691L13.1473 74.899L38.1236 54.7343L28.924 43.3395Z" stroke="#0EB622" stroke-width="2.43788"/>
<circle cx="45.5" cy="38.8678" r="35.0019" fill="url(#paint0_linear_10320_93910)"/>
<circle cx="45.5003" cy="38.9718" r="28.1535" stroke="white" stroke-width="1.62526"/>
<circle cx="45.4999" cy="39.2629" r="23.0198" stroke="white" stroke-width="1.62526"/>
<g filter="url(#filter0_d_10320_93910)">
<mask id="path-6-outside-1_10320_93910" maskUnits="userSpaceOnUse" x="35.6616" y="26.0155" width="19" height="25" fill="black">
<rect fill="white" x="35.6616" y="26.0155" width="19" height="25"/>
<path d="M37.6491 50.0155V45.7348C37.6491 44.7971 37.7918 43.9817 38.0772 43.2886C38.383 42.5955 38.8722 41.984 39.5449 41.454C40.2379 40.9036 41.145 40.3838 42.2662 39.8946L46.0577 38.2129C46.9954 37.7848 47.7089 37.265 48.1981 36.6535C48.7077 36.0216 48.9625 35.2164 48.9625 34.2379C48.9625 33.1575 48.6363 32.3014 47.984 31.6695C47.3521 31.0172 46.445 30.691 45.2627 30.691C44.0804 30.691 43.1631 31.0172 42.5108 31.6695C41.8789 32.3218 41.5629 33.2289 41.5629 34.3908H37.3739C37.3739 33.0046 37.6695 31.7612 38.2606 30.6604C38.8518 29.5393 39.7283 28.6628 40.8902 28.0308C42.0522 27.3785 43.5096 27.0524 45.2627 27.0524C47.0158 27.0524 48.4733 27.3683 49.6352 28.0003C50.7971 28.6322 51.6736 29.4781 52.2648 30.5381C52.8559 31.5777 53.1515 32.7396 53.1515 34.0239V34.4214C53.1515 36.0929 52.6827 37.4892 51.745 38.6104C50.8073 39.7111 49.4313 40.6692 47.6171 41.4846L43.8256 43.1663C43.1122 43.4721 42.6127 43.7982 42.3273 44.1448C42.042 44.4709 41.8993 44.9194 41.8993 45.4901V47.4471L40.8597 46.3157H53.2432V50.0155H37.6491Z"/>
</mask>
<path d="M37.6491 50.0155V45.7348C37.6491 44.7971 37.7918 43.9817 38.0772 43.2886C38.383 42.5955 38.8722 41.984 39.5449 41.454C40.2379 40.9036 41.145 40.3838 42.2662 39.8946L46.0577 38.2129C46.9954 37.7848 47.7089 37.265 48.1981 36.6535C48.7077 36.0216 48.9625 35.2164 48.9625 34.2379C48.9625 33.1575 48.6363 32.3014 47.984 31.6695C47.3521 31.0172 46.445 30.691 45.2627 30.691C44.0804 30.691 43.1631 31.0172 42.5108 31.6695C41.8789 32.3218 41.5629 33.2289 41.5629 34.3908H37.3739C37.3739 33.0046 37.6695 31.7612 38.2606 30.6604C38.8518 29.5393 39.7283 28.6628 40.8902 28.0308C42.0522 27.3785 43.5096 27.0524 45.2627 27.0524C47.0158 27.0524 48.4733 27.3683 49.6352 28.0003C50.7971 28.6322 51.6736 29.4781 52.2648 30.5381C52.8559 31.5777 53.1515 32.7396 53.1515 34.0239V34.4214C53.1515 36.0929 52.6827 37.4892 51.745 38.6104C50.8073 39.7111 49.4313 40.6692 47.6171 41.4846L43.8256 43.1663C43.1122 43.4721 42.6127 43.7982 42.3273 44.1448C42.042 44.4709 41.8993 44.9194 41.8993 45.4901V47.4471L40.8597 46.3157H53.2432V50.0155H37.6491Z" fill="white"/>
<path d="M37.6491 50.0155H36.8365V50.8281H37.6491V50.0155ZM38.0772 43.2886L37.3337 42.9606L37.3296 42.9699L37.3258 42.9792L38.0772 43.2886ZM39.5449 41.454L40.0478 42.0923L40.0502 42.0904L39.5449 41.454ZM42.2662 39.8946L42.5912 40.6394L42.5957 40.6374L42.2662 39.8946ZM46.0577 38.2129L46.3872 38.9558L46.3952 38.9521L46.0577 38.2129ZM48.1981 36.6535L47.5655 36.1433L47.5635 36.1458L48.1981 36.6535ZM47.984 31.6695L47.4004 32.2349L47.4094 32.2442L47.4186 32.2531L47.984 31.6695ZM42.5108 31.6695L41.9361 31.0948L41.9271 31.104L42.5108 31.6695ZM41.5629 34.3908V35.2034H42.3756V34.3908H41.5629ZM37.3739 34.3908H36.5613V35.2034H37.3739V34.3908ZM38.2606 30.6604L38.9766 31.0449L38.9795 31.0394L38.2606 30.6604ZM40.8902 28.0308L41.2785 28.7448L41.2881 28.7394L40.8902 28.0308ZM49.6352 28.0003L50.0234 27.2864L49.6352 28.0003ZM52.2648 30.5381L51.555 30.9339L51.5584 30.9398L52.2648 30.5381ZM51.745 38.6104L52.3636 39.1374L52.3683 39.1317L51.745 38.6104ZM47.6171 41.4846L47.9466 42.2274L47.9503 42.2258L47.6171 41.4846ZM43.8256 43.1663L44.1457 43.9133L44.1551 43.9092L43.8256 43.1663ZM42.3273 44.1448L42.9389 44.6799L42.9469 44.6707L42.9546 44.6614L42.3273 44.1448ZM41.8993 47.4471L41.3009 47.9969L42.7119 49.5324V47.4471H41.8993ZM40.8597 46.3157V45.5031H39.0093L40.2613 46.8656L40.8597 46.3157ZM53.2432 46.3157H54.0559V45.5031H53.2432V46.3157ZM53.2432 50.0155V50.8281H54.0559V50.0155H53.2432ZM38.4617 50.0155V45.7348H36.8365V50.0155H38.4617ZM38.4617 45.7348C38.4617 44.8775 38.5924 44.1717 38.8286 43.598L37.3258 42.9792C36.9912 43.7917 36.8365 44.7167 36.8365 45.7348H38.4617ZM38.8207 43.6166C39.0662 43.0602 39.4657 42.551 40.0478 42.0923L39.042 40.8157C38.2787 41.4171 37.6997 42.1309 37.3337 42.9606L38.8207 43.6166ZM40.0502 42.0904C40.6716 41.5969 41.512 41.1104 42.5912 40.6394L41.9412 39.1498C40.7781 39.6573 39.8042 40.2104 39.0395 40.8176L40.0502 42.0904ZM42.5957 40.6374L46.3872 38.9557L45.7282 37.47L41.9367 39.1518L42.5957 40.6374ZM46.3952 38.9521C47.4135 38.4872 48.2428 37.8984 48.8326 37.1611L47.5635 36.1458C47.1749 36.6316 46.5773 37.0824 45.7202 37.4736L46.3952 38.9521ZM48.8306 37.1636C49.4794 36.3592 49.7751 35.3625 49.7751 34.2379H48.1499C48.1499 35.0702 47.936 35.6839 47.5655 36.1433L48.8306 37.1636ZM49.7751 34.2379C49.7751 32.9825 49.3894 31.8995 48.5495 31.0858L47.4186 32.2531C47.8833 32.7033 48.1499 33.3325 48.1499 34.2379H49.7751ZM48.5677 31.104C47.7403 30.2499 46.5955 29.8784 45.2627 29.8784V31.5036C46.2945 31.5036 46.964 31.7844 47.4004 32.2349L48.5677 31.104ZM45.2627 29.8784C43.9285 29.8784 42.7806 30.2504 41.9362 31.0948L43.0854 32.2441C43.5456 31.7839 44.2324 31.5036 45.2627 31.5036V29.8784ZM41.9271 31.104C41.1105 31.947 40.7503 33.0793 40.7503 34.3908H42.3756C42.3756 33.3784 42.6473 32.6965 43.0945 32.2349L41.9271 31.104ZM41.5629 33.5782H37.3739V35.2034H41.5629V33.5782ZM38.1865 34.3908C38.1865 33.1239 38.4556 32.015 38.9766 31.0449L37.5447 30.276C36.8834 31.5074 36.5613 32.8854 36.5613 34.3908H38.1865ZM38.9795 31.0394C39.4925 30.0665 40.2509 29.3036 41.2785 28.7447L40.502 27.317C39.2057 28.0219 38.2111 29.0121 37.5418 30.2814L38.9795 31.0394ZM41.2881 28.7394C42.2961 28.1735 43.6064 27.865 45.2627 27.865V26.2397C43.4129 26.2397 41.8083 26.5835 40.4924 27.3222L41.2881 28.7394ZM45.2627 27.865C46.9227 27.865 48.2367 28.1647 49.2469 28.7141L50.0234 27.2864C48.7099 26.572 47.1089 26.2397 45.2627 26.2397V27.865ZM49.2469 28.7141C50.2864 29.2794 51.0455 30.0202 51.5551 30.9339L52.9745 30.1423C52.3018 28.936 51.3079 27.9849 50.0234 27.2864L49.2469 28.7141ZM51.5584 30.9398C52.0748 31.848 52.3389 32.8697 52.3389 34.0239H53.9641C53.9641 32.6096 53.6371 31.3075 52.9712 30.1364L51.5584 30.9398ZM52.3389 34.0239V34.4214H53.9641V34.0239H52.3389ZM52.3389 34.4214C52.3389 35.9313 51.9197 37.1349 51.1216 38.089L52.3683 39.1317C53.4457 37.8436 53.9641 36.2545 53.9641 34.4214H52.3389ZM51.1264 38.0834C50.2904 39.0648 49.0272 39.9599 47.284 40.7434L47.9503 42.2258C49.8355 41.3785 51.3242 40.3575 52.3636 39.1373L51.1264 38.0834ZM47.2876 40.7418L43.4961 42.4235L44.1551 43.9092L47.9466 42.2274L47.2876 40.7418ZM43.5055 42.4194C42.748 42.744 42.1078 43.1331 41.7001 43.6282L42.9546 44.6614C43.1177 44.4634 43.4763 44.2001 44.1457 43.9132L43.5055 42.4194ZM41.7158 43.6097C41.2643 44.1256 41.0866 44.786 41.0866 45.4901H42.7119C42.7119 45.0527 42.8196 44.8162 42.9389 44.6799L41.7158 43.6097ZM41.0866 45.4901V47.4471H42.7119V45.4901H41.0866ZM42.4976 46.8972L41.458 45.7659L40.2613 46.8656L41.3009 47.9969L42.4976 46.8972ZM40.8597 47.1283H53.2432V45.5031H40.8597V47.1283ZM52.4306 46.3157V50.0155H54.0559V46.3157H52.4306ZM53.2432 49.2029H37.6491V50.8281H53.2432V49.2029Z" fill="white" mask="url(#path-6-outside-1_10320_93910)"/>
</g>
<defs>
<filter id="filter0_d_10320_93910" x="30.873" y="22.1766" width="28.8712" height="35.9652" filterUnits="userSpaceOnUse" color-interpolation-filters="sRGB">
<feFlood flood-opacity="0" result="BackgroundImageFix"/>
<feColorMatrix in="SourceAlpha" type="matrix" values="0 0 0 0 0 0 0 0 0 0 0 0 0 0 0 0 0 0 127 0" result="hardAlpha"/>
<feOffset dy="1.62526"/>
<feGaussianBlur stdDeviation="3.25051"/>
<feComposite in2="hardAlpha" operator="out"/>
<feColorMatrix type="matrix" values="0 0 0 0 0.00256469 0 0 0 0 0.0252604 0 0 0 0 0.0102412 0 0 0 0.33 0"/>
<feBlend mode="normal" in2="BackgroundImageFix" result="effect1_dropShadow_10320_93910"/>
<feBlend mode="normal" in="SourceGraphic" in2="effect1_dropShadow_10320_93910" result="shape"/>
</filter>
<linearGradient id="paint0_linear_10320_93910" x1="45.5" y1="3.86584" x2="45.5" y2="73.8697" gradientUnits="userSpaceOnUse">
<stop stop-color="#D6FF7E"/>
<stop offset="1" stop-color="#0EB622"/>
</linearGradient>
</defs>
</svg>
