<svg width="22" height="21" viewBox="0 0 22 21" fill="none" xmlns="http://www.w3.org/2000/svg">
<path d="M8.75 8L4.02531 2.97562C3.60705 2.52447 3.67403 2.19493 4.16729 1.90962C5.09454 1.37327 5.81689 1.3587 6.79428 1.89508L11.699 4.58672C12.0482 4.77833 12.3906 4.97256 12.75 5.07852" stroke="#475367" stroke-width="1.5" stroke-linecap="round" stroke-linejoin="round"/>
<path d="M11.25 12.1632L13.3603 18.9696C13.5326 19.5255 13.836 19.6262 14.306 19.3567C15.1896 18.8501 15.5458 18.265 15.5697 17.2107L15.6895 11.9198C15.7055 11.2131 15.7026 10.5215 16.25 10" stroke="#475367" stroke-width="1.5" stroke-linecap="round" stroke-linejoin="round"/>
<path d="M7.07846 9.48424L8.96536 8.10554L13.3877 4.88133L13.3916 4.87848L13.3991 4.87298C13.5035 4.79658 15.0594 3.66235 15.9419 3.27578C17.0265 2.80064 18.0369 3.02153 19.1239 3.32512C19.6862 3.48215 19.9673 3.56066 20.1702 3.70714C20.492 3.93955 20.7013 4.29725 20.7443 4.68849C20.7715 4.93507 20.6998 5.21456 20.5565 5.77353L20.5565 5.77355C20.2794 6.85428 19.9681 7.82816 19.0088 8.51749C18.2282 9.07837 16.4545 9.84097 16.3356 9.89185L16.3271 9.89549L16.3226 9.8974L11.2817 12.0644L9.12824 12.9875L9.12821 12.9876C8.3474 13.3223 7.957 13.4896 7.69139 13.8002C7.06933 14.5275 6.98148 15.8437 6.74931 16.7493C6.62101 17.2498 5.91748 18.117 5.29058 17.9868C4.90355 17.9065 4.89613 17.422 4.84796 17.1131L4.3842 14.1389C4.2733 13.4276 4.26479 13.413 3.69599 12.9626L1.31757 11.0792C1.07053 10.8836 0.649029 10.635 0.772003 10.2641C0.971191 9.66327 2.08408 9.49568 2.58747 9.63627C3.49834 9.89066 4.69747 10.4737 5.64684 10.3058C6.0522 10.2341 6.39428 9.98414 7.07844 9.48425L7.07846 9.48424Z" stroke="#475367" stroke-width="1.5" stroke-linecap="round" stroke-linejoin="round"/>
</svg>
