<svg width="25" height="25" viewBox="0 0 25 25" fill="none" xmlns="http://www.w3.org/2000/svg">
<path d="M3.25 8H22.25" stroke="#475367" stroke-width="1.5" stroke-linejoin="round"/>
<path d="M17.75 3L14.75 8" stroke="#475367" stroke-width="1.5" stroke-linejoin="round"/>
<path d="M10.75 3L7.75 8" stroke="#475367" stroke-width="1.5" stroke-linejoin="round"/>
<path d="M3.25 12.5C3.25 8.02166 3.25 5.78249 4.64124 4.39124C6.03249 3 8.27166 3 12.75 3C17.2283 3 19.4675 3 20.8588 4.39124C22.25 5.78249 22.25 8.02166 22.25 12.5C22.25 16.9783 22.25 19.2175 20.8588 20.6088C19.4675 22 17.2283 22 12.75 22C8.27166 22 6.03249 22 4.64124 20.6088C3.25 19.2175 3.25 16.9783 3.25 12.5Z" stroke="#475367" stroke-width="1.5"/>
<path d="M15.7031 15.3948C15.5516 16.0215 14.8357 16.4644 13.4039 17.3502C12.0197 18.2064 11.3277 18.6346 10.7699 18.4625C10.5393 18.3913 10.3293 18.2562 10.1598 18.07C9.75 17.6198 9.75 16.7465 9.75 15C9.75 13.2535 9.75 12.3802 10.1598 11.9299C10.3293 11.7438 10.5393 11.6087 10.7699 11.5375C11.3277 11.3654 12.0197 11.7936 13.4039 12.6498C14.8357 13.5356 15.5516 13.9785 15.7031 14.6052C15.7656 14.8639 15.7656 15.1361 15.7031 15.3948Z" stroke="#475367" stroke-width="1.5" stroke-linejoin="round"/>
</svg>
