<svg width="61" height="60" viewBox="0 0 61 60" fill="none" xmlns="http://www.w3.org/2000/svg">
<rect x="0.353516" width="60" height="60" rx="13.75" fill="#DADBFE"/>
<path d="M18.4785 24.375H42.2285" stroke="#4E55FF" stroke-width="1.875" stroke-linejoin="round"/>
<path d="M36.6035 18.125L32.8535 24.375" stroke="#4E55FF" stroke-width="1.875" stroke-linejoin="round"/>
<path d="M27.8535 18.125L24.1035 24.375" stroke="#4E55FF" stroke-width="1.875" stroke-linejoin="round"/>
<path d="M18.4785 30C18.4785 24.4021 18.4785 21.6031 20.2176 19.8641C21.9566 18.125 24.7556 18.125 30.3535 18.125C35.9514 18.125 38.7504 18.125 40.4895 19.8641C42.2285 21.6031 42.2285 24.4021 42.2285 30C42.2285 35.5979 42.2285 38.3969 40.4895 40.1359C38.7504 41.875 35.9514 41.875 30.3535 41.875C24.7556 41.875 21.9566 41.875 20.2176 40.1359C18.4785 38.3969 18.4785 35.5979 18.4785 30Z" stroke="#4E55FF" stroke-width="1.875"/>
<path d="M34.0449 33.6185C33.8556 34.4019 32.9607 34.9555 31.1709 36.0627C29.4407 37.133 28.5756 37.6682 27.8784 37.4531C27.5902 37.3642 27.3276 37.1952 27.1158 36.9626C26.6035 36.3998 26.6035 35.3082 26.6035 33.125C26.6035 30.9418 26.6035 29.8502 27.1158 29.2874C27.3276 29.0548 27.5902 28.8858 27.8784 28.7969C28.5756 28.5818 29.4407 29.117 31.1709 30.1873C32.9607 31.2945 33.8556 31.8481 34.0449 32.6315C34.1231 32.9549 34.1231 33.2951 34.0449 33.6185Z" stroke="#4E55FF" stroke-width="1.875" stroke-linejoin="round"/>
</svg>
