<svg width="20" height="20" viewBox="0 0 20 20" fill="none" xmlns="http://www.w3.org/2000/svg">
<path d="M10.5891 1.91076C10.2637 1.58533 9.73602 1.58533 9.41058 1.91076L6.07725 5.2441C5.75181 5.56953 5.75181 6.09717 6.07725 6.42261C6.40269 6.74805 6.93032 6.74805 7.25576 6.42261L9.1665 4.51186V14.1667C9.1665 14.6269 9.5396 15 9.99984 15C10.4601 15 10.8332 14.6269 10.8332 14.1667V4.51186L12.7439 6.42261C13.0694 6.74805 13.597 6.74805 13.9224 6.42261C14.2479 6.09717 14.2479 5.56953 13.9224 5.2441L10.5891 1.91076Z" fill="#667185"/>
<path d="M3.33317 14.5834C3.33317 14.1231 2.96007 13.75 2.49984 13.75C2.0396 13.75 1.6665 14.1231 1.6665 14.5834V15.8334C1.6665 17.6743 3.15889 19.1667 4.99984 19.1667H14.9998C16.8408 19.1667 18.3332 17.6743 18.3332 15.8334V14.5834C18.3332 14.1231 17.9601 13.75 17.4998 13.75C17.0396 13.75 16.6665 14.1231 16.6665 14.5834V15.8334C16.6665 16.7538 15.9203 17.5 14.9998 17.5H4.99984C4.07936 17.5 3.33317 16.7538 3.33317 15.8334V14.5834Z" fill="#667185"/>
</svg>
