<svg width="25" height="24" viewBox="0 0 25 24" fill="none" xmlns="http://www.w3.org/2000/svg">
<g clip-path="url(#clip0_8143_17908)">
<path d="M21.274 18C22.0233 18 22.6193 17.5285 23.1545 16.8691C24.2499 15.5194 22.4513 14.4408 21.7654 13.9126C21.068 13.3756 20.2894 13.0714 19.5 13M18.5 11C19.8807 11 21 9.88071 21 8.5C21 7.11929 19.8807 6 18.5 6" stroke="#141B34" stroke-width="1.5" stroke-linecap="round"/>
<path d="M3.72596 18C2.97666 18 2.38067 17.5285 1.84555 16.8691C0.750089 15.5194 2.54867 14.4408 3.23465 13.9126C3.93197 13.3756 4.71058 13.0714 5.5 13M6 11C4.61929 11 3.5 9.88071 3.5 8.5C3.5 7.11929 4.61929 6 6 6" stroke="#141B34" stroke-width="1.5" stroke-linecap="round"/>
<path d="M8.5838 15.1112C7.56203 15.743 4.88299 17.0331 6.5147 18.6474C7.31178 19.436 8.19952 20 9.31563 20H15.6844C16.8005 20 17.6882 19.436 18.4853 18.6474C20.117 17.0331 17.438 15.743 16.4162 15.1112C14.0201 13.6296 10.9799 13.6296 8.5838 15.1112Z" stroke="#141B34" stroke-width="1.5" stroke-linecap="round" stroke-linejoin="round"/>
<path d="M16 7.5C16 9.433 14.433 11 12.5 11C10.567 11 9 9.433 9 7.5C9 5.567 10.567 4 12.5 4C14.433 4 16 5.567 16 7.5Z" stroke="#141B34" stroke-width="1.5"/>
</g>
<defs>
<clipPath id="clip0_8143_17908">
<rect width="24" height="24" fill="white" transform="translate(0.5)"/>
</clipPath>
</defs>
</svg>
