<svg width="51" height="51" viewBox="0 0 51 51" fill="none" xmlns="http://www.w3.org/2000/svg">
<circle cx="25.5" cy="25.5996" r="25" fill="#FBE2B7"/>
<path d="M17.1521 20.6583C20.1692 15.3197 21.6778 12.6503 23.7478 11.9632C24.8866 11.5852 26.1134 11.5852 27.2522 11.9632C29.3222 12.6503 30.8308 15.3197 33.8479 20.6583C36.865 25.997 38.3735 28.6664 37.921 30.8414C37.672 32.0379 37.0587 33.1233 36.1688 33.9418C34.5513 35.4297 31.5342 35.4297 25.5 35.4297C19.4658 35.4297 16.4487 35.4297 14.8312 33.9418C13.9413 33.1233 13.328 32.0379 13.079 30.8414C12.6265 28.6664 14.135 25.997 17.1521 20.6583Z" stroke="#F3A218" stroke-width="1.875"/>
<path d="M25.49 28.5547H25.5012" stroke="#F3A218" stroke-width="2.5" stroke-linecap="round" stroke-linejoin="round"/>
<path d="M25.5 24.8047L25.5 19.8047" stroke="#F3A218" stroke-width="1.875" stroke-linecap="round" stroke-linejoin="round"/>
</svg>
