<svg width="41" height="41" viewBox="0 0 41 41" fill="none" xmlns="http://www.w3.org/2000/svg">
<g clip-path="url(#clip0_7188_21374)">
<path d="M20.5 -0.000976562C9.47371 -0.000976562 0.5 9.01811 0.5 20.1031C0.5 31.1881 9.47371 40.1031 20.5 40.1031C31.5263 40.1031 40.5 31.1294 40.5 20.1031C40.5 9.07683 31.529 -0.000976562 20.5 -0.000976562ZM20.5 38.2721C10.4827 38.2721 2.33104 30.1231 2.33104 20.1031C2.33104 10.0831 10.4827 1.9395 20.5 1.9395C30.5174 1.9395 38.6663 10.0884 38.6663 20.1058C38.6663 30.1231 30.5174 38.2747 20.5 38.2747V38.2721ZM20.5 3.45024C11.3154 3.45024 3.84445 10.9212 3.84445 20.1031C3.84445 29.285 11.3154 36.7587 20.5 36.7587C29.6846 36.7587 37.1529 29.2877 37.1529 20.1031C37.1529 10.9185 29.6846 3.45024 20.5 3.45024ZM20.5 34.9623C12.3057 34.9623 5.6408 28.2974 5.6408 20.1031C5.6408 11.9088 12.3057 5.13982 20.5 5.13982C28.6943 5.13982 35.3565 11.8528 35.3565 20.1031C35.3565 28.3535 28.6916 34.9623 20.5 34.9623Z" fill="#292929"/>
<path d="M32.0068 25.6124C30.3493 29.7015 26.6125 32.6456 22.2537 33.2969C21.6265 33.3903 21.0019 33.4357 20.38 33.4357C17.7215 33.4357 15.1404 32.5896 12.9651 30.9774C10.2799 28.9889 8.52892 26.0742 8.0378 22.7697C7.8296 21.3845 7.85629 19.9912 8.11253 18.6299L13.1652 19.5801C13.0825 20.0205 13.0425 20.4663 13.0425 20.9147H20.4227V26.0581H15.1244C15.3993 26.3411 15.7009 26.6053 16.0266 26.8455C17.6067 28.0173 19.5499 28.5004 21.4957 28.2095C24.0634 27.8278 26.2655 26.0928 27.2397 23.6826L32.0068 25.6124Z" fill="#292929"/>
</g>
<defs>
<clipPath id="clip0_7188_21374">
<rect width="40" height="40.1068" fill="white" transform="translate(0.5)"/>
</clipPath>
</defs>
</svg>
